<?xml version="1.0" encoding="UTF-8" standalone="no"?>
<!-- Generator: Adobe Illustrator 12.0.0, SVG Export Plug-In . SVG Version: 6.00 Build 51448)  -->
<svg id="Layer_1" height="128" xmlns:cc="http://creativecommons.org/ns#" xmlns:dc="http://purl.org/dc/elements/1.1/" space="preserve" width="128" version="1.1" xmlns:xlink="http://www.w3.org/1999/xlink" overflow="visible" xmlns:rdf="http://www.w3.org/1999/02/22-rdf-syntax-ns#" xmlns="http://www.w3.org/2000/svg" viewBox="0 0 128 128" enable-background="new 0 0 128 128">
 <metadata>
  <rdf:RDF xmlns:rdf="http://www.w3.org/1999/02/22-rdf-syntax-ns#" xmlns:cc="http://web.resource.org/cc/" xmlns:dc="http://purl.org/dc/elements/1.1/">
   <cc:Work rdf:about="">
    <dc:title/>
    <dc:description/>
    <dc:subject>
     <rdf:Bag>
      <rdf:li>unsorted</rdf:li>
     </rdf:Bag>
    </dc:subject>
    <dc:publisher>
     <cc:Agent rdf:about="http://www.openclipart.org/">
      <dc:title>Open Clip Art Library, Source: Oxygen Icons, Source: Oxygen Icons, Source: Oxygen Icons, Source: Oxygen Icons</dc:title>
     </cc:Agent>
    </dc:publisher>
    <dc:creator>
     <cc:Agent>
      <dc:title/>
     </cc:Agent>
    </dc:creator>
    <dc:rights>
     <cc:Agent>
      <dc:title/>
     </cc:Agent>
    </dc:rights>
    <dc:date/>
    <dc:format>image/svg+xml</dc:format>
    <dc:type rdf:resource="http://purl.org/dc/dcmitype/StillImage"/>
    <cc:license rdf:resource="http://creativecommons.org/licenses/by-sa/3.0/ or http://creativecommons.org/licenses/LGPL/2.1/"/>
    <dc:language>en</dc:language>
   </cc:Work>
  </rdf:RDF>
 </metadata>
 <defs id="defs105">
  <linearGradient id="linearGradient4921">
   <stop id="stop4923" offset="0"/>
   <stop id="stop4925" stop-opacity="0" offset="1"/>
  </linearGradient>
  <linearGradient id="linearGradient4909">
   <stop id="stop4911" stop-color="#8c8d8d" offset="0"/>
   <stop id="stop4913" stop-color="#747776" offset="1"/>
  </linearGradient>
  <radialGradient id="XMLID_40_" gradientUnits="userSpaceOnUse" cy="45.241" cx="56.02" gradientTransform="matrix(.9974 .2673 -.2673 .9974 -76.963 -22.171)" r="71.351">
   <stop id="stop240" stop-color="#BFEBFF" offset="0"/>
   <stop id="stop242" stop-color="#9FDFFF" offset=".073717"/>
   <stop id="stop244" stop-color="#78D1FF" offset=".17752"/>
   <stop id="stop246" stop-color="#5AC6FF" offset=".28052"/>
   <stop id="stop248" stop-color="#44BEFF" offset=".38115"/>
   <stop id="stop250" stop-color="#37BAFF" offset=".4783"/>
   <stop id="stop252" stop-color="#33B8FF" offset=".56805"/>
   <stop id="stop254" stop-color="#1690E3" offset=".80196"/>
   <stop id="stop256" stop-color="#0063b4" offset="1"/>
  </radialGradient>
  <linearGradient id="linearGradient3284">
   <stop id="stop3286" stop-color="#39465c" offset="0"/>
   <stop id="stop3288" stop-opacity="0" offset="1"/>
  </linearGradient>
  <linearGradient id="linearGradient3711" y2="-384" gradientUnits="userSpaceOnUse" y1="-384" gradientTransform="matrix(0 1 -1 0 -39.998 140)" x2="-23.516" x1="-84.002">
   <stop id="stop3713" stop-color="#fff" offset="0"/>
   <stop id="stop3715" stop-color="#fff" stop-opacity="0" offset="1"/>
  </linearGradient>
  <linearGradient id="linearGradient3257" y2="76.491" xlink:href="#XMLID_40_" gradientUnits="userSpaceOnUse" y1="37.354" gradientTransform="matrix(.82130 0 0 .82130 -44.796 36.498)" x2="3.4941" x1="27.06"/>
  <linearGradient id="linearGradient3280" y2="58.8" gradientUnits="userSpaceOnUse" y1="68.5" gradientTransform="matrix(.80755 -.48626 .43873 .72861 -23.516 53.905)" x2="59.7" x1="23.5">
   <stop id="stop83" stop-color="#888A85" offset="0"/>
   <stop id="stop85" stop-color="#8C8E89" offset=".0072"/>
   <stop id="stop87" stop-color="#ABACA9" offset=".0673"/>
   <stop id="stop89" stop-color="#C5C6C4" offset=".1347"/>
   <stop id="stop91" stop-color="#DBDBDA" offset=".2115"/>
   <stop id="stop93" stop-color="#EBEBEB" offset=".3012"/>
   <stop id="stop95" stop-color="#F7F7F6" offset=".4122"/>
   <stop id="stop97" stop-color="#FDFDFD" offset=".5679"/>
   <stop id="stop99" stop-color="#fff" offset="1"/>
  </linearGradient>
  <linearGradient id="linearGradient3290" y2="84" xlink:href="#linearGradient3284" gradientUnits="userSpaceOnUse" y1="124.79" gradientTransform="matrix(.80755 -.48626 .43873 .72861 -23.516 53.905)" x2="68" x1="59.128"/>
  <linearGradient id="linearGradient3294" y2="52" xlink:href="#linearGradient3284" gradientUnits="userSpaceOnUse" y1="9.6802" gradientTransform="matrix(.80755 -.48626 .43873 .72861 -23.516 53.905)" x2="60" x1="48.086"/>
  <linearGradient id="linearGradient3411" y2="109.42" gradientUnits="userSpaceOnUse" y1="45.514" gradientTransform="matrix(.80755 -.48626 .43873 .72861 -23.516 53.905)" x2="47.943" x1="48.075">
   <stop id="stop76" stop-color="#fff" stop-opacity="0" offset="0"/>
   <stop id="stop78" stop-color="#595c57" offset="1"/>
  </linearGradient>
  <linearGradient id="linearGradient3415" y2="96" xlink:href="#XMLID_40_" gradientUnits="userSpaceOnUse" y1="16" gradientTransform="matrix(1.0369 0 0 1.0369 49.329 21.279)" x2="16" x1="16"/>
  <linearGradient id="linearGradient3426" y2="68.474" xlink:href="#linearGradient3711" gradientUnits="userSpaceOnUse" y1="48.318" gradientTransform="matrix(1.1137 -.67059 .67059 1.1137 -38.958 37.882)" x2="6.0801" x1="18.217"/>
  <linearGradient id="linearGradient3430" y2="48.46" gradientUnits="userSpaceOnUse" y1="48.46" gradientTransform="matrix(.80755 -.48626 .43873 .72861 -23.516 53.905)" x2="116.66" x1="104.85">
   <stop id="stop3434" stop-opacity="0" offset="0"/>
   <stop id="stop3436" stop-color="#393B38" offset="1"/>
  </linearGradient>
  <linearGradient id="linearGradient3440" y2="71.496" xlink:href="#linearGradient3711" gradientUnits="userSpaceOnUse" y1="51.401" gradientTransform="matrix(2.0503 -1.2346 1.2346 2.0503 -21.299 -81.179)" x2="6.4853" x1="18.585"/>
  <linearGradient id="linearGradient3483" y2="33.251" gradientUnits="userSpaceOnUse" y1="88" gradientTransform="translate(16)" x2="8" x1="8">
   <stop id="stop3479" stop-color="#070062" offset="0"/>
   <stop id="stop3481" stop-color="#001462" stop-opacity="0" offset="1"/>
  </linearGradient>
  <filter id="filter4889">
   <feGaussianBlur id="feGaussianBlur4891" stdDeviation="0.32880764"/>
  </filter>
  <linearGradient id="linearGradient4915" y2="91.23" xlink:href="#linearGradient4909" gradientUnits="userSpaceOnUse" y1="98.125" gradientTransform="matrix(1.2142 0 0 1.2142 -11.278 -19.164)" x2="68.678" x1="44.636"/>
  <linearGradient id="linearGradient4927" y2="94.457" xlink:href="#linearGradient4921" gradientUnits="userSpaceOnUse" y1="87.297" x2="66.147" x1="70.281"/>
  <filter id="filter4993">
   <feGaussianBlur id="feGaussianBlur4995" stdDeviation="0.15738774"/>
  </filter>
  <linearGradient id="linearGradient4999" y2="94.457" xlink:href="#linearGradient4921" gradientUnits="userSpaceOnUse" y1="87.297" gradientTransform="translate(-26.562 7.0625)" x2="66.147" x1="70.281"/>
  <linearGradient id="linearGradient5013" y2="93.275" gradientUnits="userSpaceOnUse" y1="97.887" x2="106.05" x1="107.29">
   <stop id="stop5009" stop-opacity=".64356" offset="0"/>
   <stop id="stop5011" stop-opacity="0" offset="1"/>
  </linearGradient>
  <filter id="filter5055">
   <feGaussianBlur id="feGaussianBlur5057" stdDeviation="0.49829777"/>
  </filter>
  <clipPath id="clipPath5072" clipPathUnits="userSpaceOnUse">
   <path id="path5074" d="m122.47 87.781l-4.32 1.171 1.64 6.193c0.55 2.077-0.67 4.198-2.75 4.757l-15.19 4.098c-2.073 0.56-4.194-0.67-4.753-2.74l-1.634-6.16-4.538 1.208c0.032 0.217 0.052 0.441 0.11 0.658l2.415 9.044c0.779 2.89 3.762 4.62 6.66 3.84l21.19-5.71c2.9-0.78 4.62-3.76 3.84-6.661l-2.45-9.039c-0.06-0.226-0.13-0.448-0.22-0.659z" fill="url(#linearGradient5076)"/>
  </clipPath>
  <linearGradient id="linearGradient5076" y2="91.23" xlink:href="#linearGradient4909" gradientUnits="userSpaceOnUse" y1="98.125" gradientTransform="matrix(1.171 0 0 1.171 40.352 -18.233)" x2="68.678" x1="44.636"/>
  <linearGradient id="linearGradient5113" y2="56.665" xlink:href="#linearGradient3711" gradientUnits="userSpaceOnUse" y1="69.335" gradientTransform="matrix(1.1137 -.67059 .67059 1.1137 -38.958 38.018)" x2="20.826" x1="13.197"/>
  <linearGradient id="linearGradient5153" y2="87.491" xlink:href="#linearGradient3711" gradientUnits="userSpaceOnUse" y1="20.375" x2="88.999" x1="50.25"/>
  <filter id="filter5227">
   <feGaussianBlur id="feGaussianBlur5229" stdDeviation="0.79617247"/>
  </filter>
  <linearGradient id="linearGradient5243" y2="26.868" gradientUnits="userSpaceOnUse" y1="62.657" x2="-62.814" x1="-84.364">
   <stop id="stop5239" stop-color="#001d88" offset="0"/>
   <stop id="stop5241" stop-color="#001d88" stop-opacity="0" offset="1"/>
  </linearGradient>
  <filter id="filter5261">
   <feGaussianBlur id="feGaussianBlur5263" stdDeviation="0.436789"/>
  </filter>
  <clipPath id="clipPath5265" clipPathUnits="userSpaceOnUse">
   <rect id="rect5267" rx="4.6272" ry="4.6272" height="40" width="16" y="42.657" x="-83.864" fill="url(#linearGradient5269)"/>
  </clipPath>
  <linearGradient id="linearGradient5269" y2="76.491" xlink:href="#XMLID_40_" gradientUnits="userSpaceOnUse" y1="37.354" gradientTransform="translate(-91.864 -5.3428)" x2="3.4941" x1="27.06"/>
  <linearGradient id="linearGradient5553" y2="93.21" xlink:href="#linearGradient3711" gradientUnits="userSpaceOnUse" y1="112.71" gradientTransform="matrix(-1.0516 .60712 .60712 1.0516 60.149 -38.219)" x2="56.501" x1="56.585"/>
  <linearGradient id="linearGradient5555" y2="92.53" xlink:href="#linearGradient3711" gradientUnits="userSpaceOnUse" y1="108.91" gradientTransform="matrix(-1.0516 .60712 .60712 1.0516 60.149 -38.219)" x2="70.411" x1="52.684"/>
  <radialGradient id="radialGradient5559" fx="56.574" fy="110.24" gradientUnits="userSpaceOnUse" cy="108.29" cx="57.991" gradientTransform="matrix(2.3827 -.63845 .25079 .93597 -106.75 39.855)" r="15.311">
   <stop id="stop5545" stop-color="#fff" offset="0"/>
   <stop id="stop5547" stop-color="#fff" stop-opacity="0" offset="1"/>
  </radialGradient>
  <filter id="filter5569">
   <feGaussianBlur id="feGaussianBlur5571" stdDeviation="0.5580741"/>
  </filter>
 </defs>
 <path id="path3269" d="m77.459 16.93l-58.78 63.192 14.478 24.048 83.353-22.394-39.051-64.846z" fill-rule="evenodd" fill="url(#linearGradient3280)"/>
 <path id="path3292" d="m77.459 16.93l-58.78 63.192 14.478 24.048 83.353-22.394-39.051-64.846z" fill-rule="evenodd" fill="url(#linearGradient3294)"/>
 <path id="path3409" d="m77.459 16.93l-58.78 63.192 14.478 24.048 83.353-22.394-39.051-64.846z" fill-rule="evenodd" fill="url(#linearGradient3411)"/>
 <rect id="rect3413" rx="4.1477" ry="4.1477" transform="matrix(.85668 -.51584 .51584 .85668 0 0)" width="8.2953" y="46.165" x="57.624" height="91.248" fill="url(#linearGradient3415)"/>
 <path id="path3282" d="m77.459 16.93l-58.78 63.192 3.126 5.192 11.352 18.856 83.353-22.394-39.051-64.846z" fill-rule="evenodd" fill="url(#linearGradient3290)"/>
 <path id="path3428" opacity=".31683" d="m77.459 16.93l0.037 19.148 24.644 47.95 14.37-2.252-39.051-64.846z" fill-rule="evenodd" fill="url(#linearGradient3430)"/>
 <path id="path3438" opacity=".51485" d="m118.71 69.557l-36.819-61.347c-0.942-1.5647-3.594-1.4677-5.158-0.5258l38.507 63.958 3.47-2.085z" fill="url(#linearGradient3440)"/>
 <path id="path4919" opacity=".33663" d="m69.406 88.938l-7.687 4.406 8.562-2.282-0.875-2.124z" fill-rule="evenodd" transform="matrix(1.0369 0 0 1.0369 -2.5704 -.25840)" filter="url(#filter4993)" fill="url(#linearGradient4927)"/>
 <path id="path4997" opacity=".33663" d="m42.844 96l-7.688 4.41 8.563-2.285-0.875-2.125z" fill-rule="evenodd" transform="matrix(.95744 0 0 .95744 .22349 7.721)" filter="url(#filter4993)" fill="url(#linearGradient4999)"/>
 <path id="rect4901" d="m73.87 90.763l-4.477 1.214 1.694 6.421c0.58 2.152-0.691 4.352-2.845 4.932l-15.748 4.25c-2.154 0.58-4.353-0.69-4.933-2.84l-1.694-6.388-4.705 1.252c0.032 0.226 0.053 0.456 0.114 0.686l2.504 9.37c0.808 3.01 3.9 4.79 6.906 3.98l21.97-5.92c3.006-0.8 4.792-3.9 3.984-6.9l-2.542-9.374c-0.063-0.235-0.138-0.464-0.228-0.683z" fill="url(#linearGradient4915)"/>
 <path id="path5078" opacity=".74257" d="m45.844 98.357c0.589 2.143 1.177 4.283 1.765 6.423 0.576 2.16 2.777 3.42 4.932 2.84l15.761-4.19c0.586-0.16 1.084-0.44 1.52-0.81-0.384 1.3-1.389 2.36-2.798 2.74l-15.76 4.2c-2.156 0.57-4.358-0.97-4.931-2.88-0.56-1.86-1.769-4.17-1.455-5.19l0.966-3.133z" fill="url(#linearGradient5555)"/>
 <path id="path5005" stroke-linejoin="round" d="m122.47 87.781c-2.06-0.442-3.31 0.209-4.32 1.171l1.64 6.193c0.55 2.077-0.67 4.198-2.75 4.757l-15.19 4.098c-2.073 0.56-4.194-0.67-4.753-2.74l-1.634-6.16c-1.878-0.719-3.483-0.6-4.538 1.208 0.032 0.217 0.052 0.441 0.11 0.658l2.415 9.044c0.779 2.89 3.762 4.62 6.66 3.84l21.19-5.71c2.9-0.78 4.62-3.76 3.84-6.661l-2.45-9.039c-0.06-0.226-0.13-0.448-0.22-0.659z" clip-path="url(#clipPath5072)" transform="matrix(1.0369 0 0 1.0369 -53.116 -.26985)" filter="url(#filter5055)" stroke="url(#linearGradient5013)" stroke-linecap="round" stroke-width="1.4" fill="none"/>
 <path id="path5082" opacity=".74257" d="m47.609 104.78c0.576 2.16 2.777 3.42 4.932 2.84l15.761-4.19c0.586-0.16 1.084-0.44 1.52-0.81-0.384 1.3-1.389 2.36-2.798 2.74l-15.76 4.2c-2.156 0.57-4.358-0.97-4.931-2.88-0.56-1.86-1.769-4.17-1.455-5.19 1.043-3.786 1.435-0.11 2.731 3.29z" fill="url(#linearGradient5553)"/>
 <path id="path5137" d="m77.25 20.375l-51.5 54.875c0.3 3.039 36.923-33.147 49.75-41.5 5.541-3.608-11.182 18.229-11.25 18.75s16.654-8.603 15.75-16c-0.611-5-1.83-11.125-2.75-16.125z" fill-rule="evenodd" transform="matrix(1.0369 0 0 1.0369 -2.5704 -.25840)" filter="url(#filter5227)" fill="url(#linearGradient5153)"/>
 <path id="path5557" d="m71.75 88.938c-0.208 0.006-0.449 0.144-0.594 0.312-0.118 0.126-0.175 0.297-0.156 0.469 0.42 2.62 2.095 4.683 2.219 6.812 0.037 0.636-0.077 1.422-0.344 2.063-0.267 0.64-0.659 1.11-1.187 1.281-6.393 2.065-13.075 4.635-19.719 5.505-1.207 0.15-2.277-0.18-3.031-1.54-0.968-1.74-1.758-3.52-1.719-5.309-0.001-0.064-0.011-0.127-0.031-0.187-0.246-0.708-0.786-1.25-1.469-1.406-0.342-0.079-0.772-0.03-1.094 0.218-0.322 0.249-0.498 0.638-0.563 1.094-0.013 0.072-0.013 0.146 0 0.219 0.427 2.101 1.29 5.251 2.407 7.651 0.432 0.94 1.307 1.52 2.25 1.82 0.942 0.3 1.97 0.35 2.906 0.15 6.921-1.48 14.635-3.37 21.656-6.03 1.087-0.41 1.8-1.32 2.188-2.31 0.388-0.995 0.48-2.117 0.343-3.125-0.155-1.144-0.328-2.367-0.874-3.531-0.261-0.557-0.438-1.275-0.75-1.969-0.313-0.694-0.791-1.401-1.594-1.844 0.002 0.002-0.147-0.107-0.375-0.219-0.114-0.055-0.261-0.131-0.469-0.124z" fill-rule="evenodd" transform="matrix(1.0369 0 0 1.0369 -2.5704 -.25840)" filter="url(#filter5569)" fill="url(#radialGradient5559)"/>
 <rect id="rect2479" rx="3.8003" ry="3.8003" transform="matrix(.85668 -.51584 .51584 .85668 0 0)" width="13.141" y="75.921" x="-38.225" height="32.852" fill="url(#linearGradient3257)"/>
 <path id="rect3265" d="m10.304 83.907c-1.4627 0.844-1.7956 2.473-0.9542 3.931l4.1912 7.528c4.736 1.046 8.139 1.653 13.484 0.302l-8.377-13.552c-0.76-1.317-2.048-1.793-3.586-0.905l-4.758 2.696z" fill="url(#linearGradient3426)"/>
 <path id="rect3466" d="m17.899 40.906c-1.148 0.841-1.906 2.18-1.906 3.719v30.75c0 2.563 2.062 4.625 4.625 4.625h6.75c1.539 0 2.879-0.757 3.719-1.906-0.765 0.559-1.694 0.906-2.719 0.906h-6.75c-2.563 0-4.625-2.062-4.625-4.625v-30.75c0-1.025 0.347-1.954 0.906-2.719z" transform="matrix(.70360 -.42366 .42366 .70360 -21.788 63.393)" filter="url(#filter4889)" fill="url(#linearGradient3483)"/>
 <path id="path5104" d="m8.8766 87.176l4.6584 8.343c4.736 1.046 8.141 1.653 13.486 0.302l-0.163-0.284c-5.188 1.263-8.434 0.592-13.039-0.424l-4.9424-7.937z" fill="url(#linearGradient5113)"/>
 <rect id="rect5235" stroke-linejoin="round" transform="matrix(.70360 -.42366 .42366 .70360 47.345 19.214)" stroke-opacity=".71123" clip-path="url(#clipPath5265)" rx="4.6272" ry="4.6272" height="40" filter="url(#filter5261)" width="16" stroke="url(#linearGradient5243)" stroke-linecap="round" y="42.657" x="-83.864" fill="none"/>
</svg>
