<?xml version="1.0" encoding="UTF-8" standalone="no"?>
<!-- Created with Inkscape (http://www.inkscape.org/) -->
<svg id="svg3408" xmlns:rdf="http://www.w3.org/1999/02/22-rdf-syntax-ns#" xmlns="http://www.w3.org/2000/svg" height="48" width="48" version="1.0" xmlns:cc="http://creativecommons.org/ns#" xmlns:xlink="http://www.w3.org/1999/xlink" xmlns:dc="http://purl.org/dc/elements/1.1/">
 <defs id="defs3410">
  <linearGradient id="linearGradient4419">
   <stop id="stop4421" stop-color="#fff" offset="0"/>
   <stop id="stop4423" stop-color="#fff" stop-opacity="0" offset="1"/>
  </linearGradient>
  <linearGradient id="linearGradient3009">
   <stop id="stop3011" stop-color="#9fbde2" offset="0"/>
   <stop id="stop3013" stop-color="#fff" offset="1"/>
  </linearGradient>
  <linearGradient id="linearGradient3003" y2="60" gradientUnits="userSpaceOnUse" y1="60" x2="47.999" x1="3.9985">
   <stop id="stop3005" stop-color="#245795" offset="0"/>
   <stop id="stop3007" stop-color="#afd4ff" offset="1"/>
  </linearGradient>
  <linearGradient id="linearGradient4408" y2="28" xlink:href="#linearGradient3003" gradientUnits="userSpaceOnUse" y1="116.09" gradientTransform="matrix(.37931 0 0 .37931 -.53448 81.233)" x2="35.804" x1="35.804"/>
  <linearGradient id="linearGradient4425" y2="91.735" xlink:href="#linearGradient4419" gradientUnits="userSpaceOnUse" y1="56.072" gradientTransform="matrix(.37931 0 0 .37931 .98276 79.716)" x2="44.466" x1="23.875"/>
  <linearGradient id="linearGradient4427" y2="28" xlink:href="#linearGradient3009" gradientUnits="userSpaceOnUse" y1="96" gradientTransform="matrix(.37931 0 0 .37931 -.53448 81.233)" x2="48" x1="48"/>
  <linearGradient id="linearGradient4435" y2="28" xlink:href="#linearGradient3003" gradientUnits="userSpaceOnUse" y1="116.09" gradientTransform="matrix(.37931 0 0 .37931 11.603 81.233)" x2="35.804" x1="35.804"/>
  <linearGradient id="linearGradient4437" y2="28" xlink:href="#linearGradient3009" gradientUnits="userSpaceOnUse" y1="88" gradientTransform="matrix(.37931 0 0 .37931 11.603 81.233)" x2="48" x1="48"/>
  <linearGradient id="linearGradient4439" y2="84" xlink:href="#linearGradient4419" gradientUnits="userSpaceOnUse" y1="48.335" gradientTransform="matrix(.37931 0 0 .37931 13.121 79.716)" x2="40" x1="19.409"/>
  <linearGradient id="linearGradient4447" y2="28" xlink:href="#linearGradient3003" gradientUnits="userSpaceOnUse" y1="116.09" gradientTransform="matrix(.37931 0 0 .37931 23.741 81.233)" x2="35.804" x1="35.804"/>
  <linearGradient id="linearGradient4449" y2="28" xlink:href="#linearGradient3009" gradientUnits="userSpaceOnUse" y1="96" gradientTransform="matrix(.37931 0 0 .37931 23.741 81.233)" x2="48" x1="48"/>
  <linearGradient id="linearGradient4451" y2="91.735" xlink:href="#linearGradient4419" gradientUnits="userSpaceOnUse" y1="56.072" gradientTransform="matrix(.37931 0 0 .37931 25.259 79.716)" x2="44.466" x1="23.875"/>
 </defs>
 <g id="layer1" transform="translate(0,-80)">
  <path id="path3452" opacity=".61386" d="m46.5 124.47-1.5172-0.75862-3.0345-1.5172v1.5172h-37.931v1.5172h37.931v1.5172l3.0345-1.5172 1.518-0.76z" fill="#797979"/>
  <rect id="rect3564" fill-opacity=".61569" rx="0" ry="0" height="1.5172" width="3.0345" y="116.13" x="2.5" fill="#787878"/>
  <rect id="rect3566" fill-opacity=".61569" rx="0" ry="0" height="1.5172" width="3.0345" y="108.54" x="2.5" fill="#787878"/>
  <rect id="rect3568" fill-opacity=".61569" rx="0" ry="0" height="1.5172" width="3.0345" y="100.96" x="2.5" fill="#787878"/>
  <rect id="rect3572" fill-opacity=".61569" rx="0" ry="0" height="1.5172" width="3.0345" y="93.371" x="2.5" fill="#787878"/>
  <rect id="rect3574" fill-opacity=".61569" rx="0" ry="0" transform="rotate(-90)" width="3.0345" y="35.879" x="-126.75" height="1.5172" fill="#787878"/>
  <rect id="rect3576" fill-opacity=".61569" rx="0" ry="0" transform="rotate(-90)" width="3.0345" y="28.293" x="-126.75" height="1.5172" fill="#787878"/>
  <rect id="rect3578" fill-opacity=".61569" rx="0" ry="0" transform="rotate(-90)" width="3.0345" y="20.707" x="-126.75" height="1.5172" fill="#787878"/>
  <rect id="rect3580" fill-opacity=".61569" rx="0" ry="0" transform="rotate(-90)" width="3.0345" y="13.121" x="-126.75" height="1.5172" fill="#787878"/>
  <path id="path3447" opacity=".61386" d="m4.7759 82.75-0.7587 1.517-1.5172 3.035h1.5172v36.414h1.5172v-36.414h1.5172l-1.5171-3.035-0.7586-1.517z" fill="#797979"/>
  <rect id="rect3630" rx="1.8104" ry="1.8104" height="19.724" width="9.1034" y="103.99" x="8.569" fill="url(#linearGradient4408)"/>
  <rect id="rect4410" rx=".67053" ry=".67053" height="16.69" width="6.069" y="105.51" x="10.086" fill="url(#linearGradient4427)"/>
  <path id="path4414" d="m10.762 105.51c-0.37147 0-0.67565 0.30417-0.67565 0.67565v8.9494c2.3722-0.48329 4.483-1.704 6.069-3.4138v-5.5356c0-0.37148-0.30417-0.67565-0.67565-0.67565h-4.7177z" fill="url(#linearGradient4425)"/>
  <rect id="rect4429" rx="1.8104" ry="1.8104" height="25.793" width="9.1034" y="97.922" x="20.707" fill="url(#linearGradient4435)"/>
  <rect id="rect4431" rx=".67053" ry=".67053" height="22.759" width="6.069" y="99.44" x="22.224" fill="url(#linearGradient4437)"/>
  <path id="path4433" d="m22.9 99.44c-0.37147 0-0.67565 0.30417-0.67565 0.67564v10.467c2.3722-0.48329 4.483-1.704 6.069-3.4138v-7.0528c0-0.37147-0.30417-0.67564-0.67565-0.67564h-4.7177z" fill="url(#linearGradient4439)"/>
  <rect id="rect4441" rx="1.8104" ry="1.8104" height="21.241" width="9.1034" y="102.47" x="32.845" fill="url(#linearGradient4447)"/>
  <rect id="rect4443" rx=".67053" ry=".67053" height="18.207" width="6.069" y="103.99" x="34.362" fill="url(#linearGradient4449)"/>
  <path id="path4445" d="m35.038 103.99c-0.37148 0-0.67565 0.30417-0.67565 0.67565v8.9494c2.3722-0.48329 4.483-1.704 6.069-3.4138v-5.5356c0-0.37148-0.30417-0.67565-0.67565-0.67565h-4.7177z" fill="url(#linearGradient4451)"/>
 </g>
</svg>
