<?xml version="1.0" encoding="UTF-8" standalone="no"?>
<!-- Created with Inkscape (http://www.inkscape.org/) -->
<svg id="svg1307" xmlns:rdf="http://www.w3.org/1999/02/22-rdf-syntax-ns#" xmlns="http://www.w3.org/2000/svg" height="48" width="48" version="1.0" xmlns:cc="http://creativecommons.org/ns#" xmlns:xlink="http://www.w3.org/1999/xlink" xmlns:dc="http://purl.org/dc/elements/1.1/">
 <metadata id="metadata3">
  <rdf:RDF>
   <cc:Work rdf:about="">
    <dc:title>Oxygen team</dc:title>
    <dc:description/>
    <dc:subject>
     <rdf:Bag>
      <rdf:li>unsorted</rdf:li>
     </rdf:Bag>
    </dc:subject>
    <dc:publisher>
     <cc:Agent rdf:about="http://www.openclipart.org/">
      <dc:title>Open Clip Art Library, Source: Oxygen Icons, Source: Oxygen Icons, Source: Oxygen Icons, Source: Oxygen Icons</dc:title>
     </cc:Agent>
    </dc:publisher>
    <dc:creator>
     <cc:Agent>
      <dc:title/>
     </cc:Agent>
    </dc:creator>
    <dc:rights>
     <cc:Agent>
      <dc:title/>
     </cc:Agent>
    </dc:rights>
    <dc:date/>
    <dc:format>image/svg+xml</dc:format>
    <dc:type rdf:resource="http://purl.org/dc/dcmitype/StillImage"/>
    <cc:license rdf:resource="http://creativecommons.org/licenses/by-sa/3.0/ or http://creativecommons.org/licenses/LGPL/2.1/"/>
    <dc:language>en</dc:language>
   </cc:Work>
  </rdf:RDF>
 </metadata>
 <defs id="defs1309">
  <linearGradient id="linearGradient2929">
   <stop id="stop2931" stop-color="#fff" offset="0"/>
   <stop id="stop2933" stop-color="#fff" stop-opacity="0" offset="1"/>
  </linearGradient>
  <radialGradient id="radialGradient2454" gradientUnits="userSpaceOnUse" cy="2.6743" cx="49.012" gradientTransform="matrix(.85345 0 0 .1578 -62.041 15.053)" r="1.7246">
   <stop id="stop3261" stop-color="#fff" stop-opacity=".55036" offset="0"/>
   <stop id="stop3263" stop-opacity="0" offset="1"/>
  </radialGradient>
  <linearGradient id="linearGradient2452" y2="2.3959" xlink:href="#linearGradient3251" gradientUnits="userSpaceOnUse" y1="3.1" gradientTransform="translate(53.872 19.353)" x2="46.052" x1="46.052"/>
  <radialGradient id="radialGradient2450" gradientUnits="userSpaceOnUse" cy="2.6743" cx="49.012" gradientTransform="matrix(.86016 0 0 .1578 -29.371 15.053)" r="1.7246">
   <stop id="stop3275" stop-color="#fff" stop-opacity=".55036" offset="0"/>
   <stop id="stop3277" stop-color="#fff" stop-opacity="0" offset="1"/>
  </radialGradient>
  <linearGradient id="linearGradient2448" y2="2.3959" xlink:href="#linearGradient3251" gradientUnits="userSpaceOnUse" y1="3.1" gradientTransform="matrix(1.2899 0 0 1.2971 -46.727 12.04)" x2="46.052" x1="46.052"/>
  <linearGradient id="linearGradient2446" y2="2.3657" xlink:href="#linearGradient2929" gradientUnits="userSpaceOnUse" y1=".81150" gradientTransform="matrix(1.2971 -0.00188 0.00188 1.2971 -47.047 12.108)" x2="48.733" x1="48.499"/>
  <radialGradient id="radialGradient2444" gradientUnits="userSpaceOnUse" cy="2.6743" cx="49.012" gradientTransform="matrix(1.2971 0 0 .1578 -47.065 15.053)" r="1.7246">
   <stop id="stop3209" stop-color="#fff" offset="0"/>
   <stop id="stop3211" stop-color="#252525" stop-opacity="0" offset="1"/>
  </radialGradient>
  <linearGradient id="linearGradient2442" y2="2.5548" gradientUnits="userSpaceOnUse" y1="2.9719" gradientTransform="matrix(1.2971 0 0 1.2971 -47.065 12.04)" x2="48.913" x1="48.915">
   <stop id="stop3219" stop-color="#252525" offset="0"/>
   <stop id="stop3221" stop-color="#252525" stop-opacity="0" offset="1"/>
  </linearGradient>
  <radialGradient id="radialGradient2440" fx="47.371" fy="6.7702" gradientUnits="userSpaceOnUse" cy="8.4953" cx="49.01" gradientTransform="matrix(1.2971 -0.00188 .00070858 .48867 -47.037 18.976)" r="3.975">
   <stop id="stop3227" stop-color="#fff" offset="0"/>
   <stop id="stop3229" stop-color="#aeaeae" offset="1"/>
  </radialGradient>
  <radialGradient id="radialGradient2438" gradientUnits="userSpaceOnUse" cy="7.4623" cx="34.678" gradientTransform="matrix(-1.5103 .0026413 -.00011671 -.0091102 87.052 7.4387)" r="47.595">
   <stop id="stop3327" stop-color="#fff" offset="0"/>
   <stop id="stop3329" stop-color="#fff" stop-opacity="0" offset="1"/>
  </radialGradient>
  <radialGradient id="radialGradient2436" gradientUnits="userSpaceOnUse" cy="7.4623" cx="34.678" gradientTransform="matrix(.99991 -.0078416 .00056661 .020483 -.0012422 7.5814)" r="47.595">
   <stop id="stop3305" stop-color="#fff" stop-opacity=".68345" offset="0"/>
   <stop id="stop3307" stop-color="#fff" stop-opacity="0" offset="1"/>
  </radialGradient>
  <radialGradient id="radialGradient2434" xlink:href="#linearGradient3311" gradientUnits="userSpaceOnUse" cy="100.75" cx="89.455" gradientTransform="matrix(.062287 -.00038250 .0049022 .79861 15.06 -17.076)" r="47.746"/>
  <radialGradient id="radialGradient2432" gradientUnits="userSpaceOnUse" cy="58.09" cx="15.727" gradientTransform="matrix(1.8216 .014706 -.017912 26.407 -11.882 -1465.7)" r="2.6144">
   <stop id="stop2505" stop-color="#252525" offset="0"/>
   <stop id="stop2507" stop-color="#252525" offset=".5"/>
   <stop id="stop2509" stop-color="#252525" offset=".75"/>
   <stop id="stop2511" offset="1"/>
  </radialGradient>
  <radialGradient id="radialGradient2430" gradientUnits="userSpaceOnUse" cy="120.64" cx="42.618" gradientTransform="matrix(1.5202 .088395 -.84335 13.788 55.277 -1567.9)" r="3.4069">
   <stop id="stop2259" stop-color="#5f4721" offset="0"/>
   <stop id="stop2261" stop-color="#dab475" offset="1"/>
  </radialGradient>
  <linearGradient id="linearGradient3311">
   <stop id="stop3313" stop-color="#2d2d2d" offset="0"/>
   <stop id="stop3319" offset=".5"/>
   <stop id="stop3315" offset="1"/>
  </linearGradient>
  <linearGradient id="linearGradient3251">
   <stop id="stop3253" offset="0"/>
   <stop id="stop3255" stop-color="#131313" stop-opacity="0" offset="1"/>
  </linearGradient>
  <linearGradient id="linearGradient3075">
   <stop id="stop3077" stop-color="#fff" offset="0"/>
   <stop id="stop3093" stop-color="#fff" offset=".42597"/>
   <stop id="stop3085" stop-color="#f1f1f1" offset=".58928"/>
   <stop id="stop3087" stop-color="#eaeaea" offset=".80220"/>
   <stop id="stop3079" stop-color="#dfdfdf" offset="1"/>
  </linearGradient>
  <linearGradient id="linearGradient3149">
   <stop id="stop3151" stop-color="#8e8e8e" offset="0"/>
   <stop id="stop3153" stop-color="#f8f8f8" offset="1"/>
  </linearGradient>
  <linearGradient id="linearGradient3678">
   <stop id="stop3680" offset="0"/>
   <stop id="stop3682" stop-opacity="0" offset="1"/>
  </linearGradient>
  <linearGradient id="linearGradient2048" y2="104.74" gradientUnits="userSpaceOnUse" y1="124.02" gradientTransform="matrix(.40061 .069993 -.069099 .39236 -7.3105 74.986)" x2="142" x1="37.767">
   <stop id="stop2364" offset="0"/>
   <stop id="stop2366" stop-opacity="0" offset="1"/>
  </linearGradient>
  <linearGradient id="linearGradient2051" y2="35.001" gradientUnits="userSpaceOnUse" y1="21.155" gradientTransform="matrix(.40647 0 0 .39859 1.8218 74.706)" x2="79.068" x1="78.93">
   <stop id="stop7266" stop-color="#fff" stop-opacity="0" offset="0"/>
   <stop id="stop7274" stop-color="#fff" stop-opacity="0" offset=".13037"/>
   <stop id="stop7272" stop-color="#fff" offset=".27147"/>
   <stop id="stop7276" stop-color="#fff" stop-opacity="0" offset=".31675"/>
   <stop id="stop7268" stop-color="#fff" stop-opacity="0" offset="1"/>
  </linearGradient>
  <linearGradient id="linearGradient2057" y2="13.976" gradientUnits="userSpaceOnUse" y1="10.976" gradientTransform="matrix(.40061 .069993 -.071115 .40381 1.9001 74.317)" x2="60.869" x1="60.352">
   <stop id="stop2948" stop-color="#fff" offset="0"/>
   <stop id="stop2950" stop-color="#fff" stop-opacity="0" offset="1"/>
  </linearGradient>
  <linearGradient id="linearGradient2077" y2="12.045" xlink:href="#linearGradient3149" spreadMethod="reflect" gradientUnits="userSpaceOnUse" y1="5.5073" gradientTransform="matrix(.50042 0 0 .51855 -6.0803 80.654)" x2="58.074" x1="58.074"/>
  <linearGradient id="linearGradient2080" y2="18.936" xlink:href="#linearGradient3678" gradientUnits="userSpaceOnUse" y1="27.143" gradientTransform="matrix(.40912 .063330 -.070567 .40218 4.5153 73.969)" x2="77.396" x1="43.196"/>
  <linearGradient id="linearGradient2083" y2="19.186" xlink:href="#linearGradient2929" gradientUnits="userSpaceOnUse" y1="15.09" gradientTransform="matrix(.39683 .069334 -.070675 .40132 2.2013 74.681)" x2="46.531" x1="45.904"/>
  <linearGradient id="linearGradient2090" y2="-9.9023" xlink:href="#linearGradient3149" gradientUnits="userSpaceOnUse" y1="-2.3661" gradientTransform="matrix(.50042 -.0017957 -.00049320 .39950 42.212 84.912)" x2="-34.002" x1="-34.078"/>
  <linearGradient id="linearGradient2094" y2="117.04" xlink:href="#linearGradient2929" gradientUnits="userSpaceOnUse" y1="-55.848" gradientTransform="matrix(.39683 .069334 -.070675 .40132 2.2013 74.681)" x2="68.236" x1="-45.962"/>
  <radialGradient id="radialGradient2101" xlink:href="#linearGradient2929" gradientUnits="userSpaceOnUse" cy="8.3625" cx="99.575" gradientTransform="matrix(.74866 .70744 -0.263 .27047 -30.9 12.865)" r="52.05"/>
  <radialGradient id="radialGradient2104" xlink:href="#linearGradient2929" gradientUnits="userSpaceOnUse" cy="8.3625" cx="99.575" gradientTransform="matrix(.039945 .056046 -.072564 .050104 38.078 79.571)" r="52.05"/>
  <radialGradient id="radialGradient2107" xlink:href="#linearGradient3311" spreadMethod="reflect" gradientUnits="userSpaceOnUse" cy="75.71" cx="12.914" gradientTransform="matrix(.88862 .032671 -.048591 1.499 4.7924 36.216)" r="53.945"/>
  <radialGradient id="radialGradient2117" xlink:href="#linearGradient3075" gradientUnits="userSpaceOnUse" cy="-10.76" cx="-172.62" gradientTransform="matrix(3.53 .94586 -.47532 1.7739 431.62 171.61)" r="16.943"/>
  <radialGradient id="radialGradient2125" xlink:href="#linearGradient3075" gradientUnits="userSpaceOnUse" cy="100.35" cx="-30.639" gradientTransform="matrix(2.4446 -.50271 .53810 2.6058 99.227 -192.47)" r="45"/>
 </defs>
 <g id="layer1" transform="translate(0,-80)">
  <path id="path2276" d="m18.689 80.879v-1.0523 1.0523z" fill-opacity=".75688" fill="#fff"/>
  <path id="path3206" d="m-68.609-83.349v-2.7947 2.7947z" fill-opacity=".75688" fill="#fff"/>
  <path id="path2341" opacity="0.12" stroke-linejoin="round" d="m38.443 83.614c-0.25929-0.03406-0.52819-0.05286-0.79731-0.05155l-24.711 0.40878c-3.1317 0.01529-5.6242 2.5093-5.5906 5.5798l-0.41652 34.453c0.01317 1.2062 1.0134 2.1656 2.2436 2.1596 10.632 0.13143 21.91-0.10135 33.059-0.26158 1.2303-0.006 2.2156-0.97895 2.2024-2.1852l-1.078-34.625c-0.03064-2.8066-2.1537-5.1093-4.9116-5.4716z" stroke-dashoffset="4" stroke="#000" stroke-linecap="round" stroke-width="3.1966" fill="none"/>
  <path id="path2339" stroke-linejoin="round" d="m38.443 83.614c-0.25929-0.03406-0.52819-0.05286-0.79731-0.05155l-24.711 0.40878c-3.1317 0.01529-5.6242 2.5093-5.5906 5.5798l-0.41652 34.453c0.01317 1.2062 1.0134 2.1656 2.2436 2.1596l33.058-0.26c1.2303-0.006 2.2156-0.97895 2.2024-2.1852l-1.077-34.625c-0.03064-2.8066-2.1537-5.1093-4.9116-5.4716z" stroke-opacity=".078431" stroke-dashoffset="4" stroke="#000" stroke-linecap="round" stroke-width="2.3975" fill="none"/>
  <path id="path2337" opacity=".2" stroke-linejoin="round" d="m38.443 83.614c-0.25929-0.03406-0.52819-0.05286-0.79731-0.05155l-24.711 0.40878c-3.1317 0.01529-5.6242 2.5093-5.5906 5.5798l-0.41652 34.453c0.01317 1.2062 1.0134 2.1656 2.2436 2.1596l33.058-0.26c1.2303-0.006 2.2156-0.97895 2.2024-2.1852l-1.077-34.625c-0.03064-2.8066-2.1537-5.1093-4.9116-5.4716z" stroke-dashoffset="4" stroke="#000" stroke-linecap="round" stroke-width="1.5983" fill="none"/>
  <path id="path3295" opacity=".48689" stroke-linejoin="round" d="m18.641 81.07 0.82988 2.4037-3.3935 0.01217-0.0062 5.0137-0.000222 0.17979 18.015-0.06463 0.000461-0.37652 0.000046-0.03521-0.25578-4.6974-3.4549-0.03201 0.76521-2.4094-4.9938-0.02111-1.9704 0.0071-5.5359 0.01986z" stroke-opacity=".14228" stroke-dashoffset="4" stroke="#000" stroke-linecap="round" stroke-width="2.4856" fill="none"/>
  <path id="path3300" opacity=".48689" stroke-linejoin="round" d="m18.648 81.029 0.82277 2.4442-3.3935 0.01217-0.0064 5.1935 18.015-0.06463-0.29533-5.1153-3.4033 0.14249 0.80076-2.6121-5.0339-0.02731-1.9704 0.0071-5.5359 0.01986z" stroke-opacity=".14228" stroke-dashoffset="4" stroke="#000" stroke-linecap="round" stroke-width="1.953" fill="none"/>
  <path id="path2522" opacity=".3" stroke-linejoin="round" d="m38.443 83.614c-0.25929-0.03406-0.52819-0.05286-0.79731-0.05155l-24.711 0.40878c-3.1317 0.01529-5.6242 2.5093-5.5906 5.5798l-0.41652 34.453c0.01317 1.2062 1.0134 2.1656 2.2436 2.1596l33.058-0.26c1.2303-0.006 2.2156-0.97895 2.2024-2.1852l-1.077-34.625c-0.03064-2.8066-2.1537-5.1093-4.9116-5.4716z" stroke-dashoffset="4" stroke="#000" stroke-linecap="round" stroke-width=".79916" fill="none"/>
  <path id="rect2353" d="m38.218 83.495c-0.25929-0.03406-0.52818-0.05286-0.79732-0.05155l-24.711 0.40878c-3.1317 0.01529-5.6242 2.5093-5.5906 5.5798l-0.41652 34.453c0.01317 1.2062 1.0134 2.1657 2.2436 2.1596l33.167-0.15997c1.2303-0.006 2.2156-0.97894 2.2024-2.1852l-1.186-34.723c-0.03065-2.8066-2.1537-5.1093-4.9116-5.4715z" fill="url(#radialGradient2107)"/>
  <path id="path3004" opacity="0.69" d="m38.948 83.405c-0.35346-0.06717-0.72015-0.09128-1.094-0.08946 0.000004 0-25.493 0.20521-25.574 0.20919-2.5802 0.12693-4.614 2.2292-4.9828 4.7729 0.49545-2.3474 2.4216-4.2453 4.8464-4.3645 0.0798-0.0039 25.196 0.004 25.196 0.004 2.8143-0.0566 5.2512 1.6924 5.3115 4.9173l1.3587 31.978c-3.1426 0.21015-6.2556 0.0379-9.3272-0.30773 3.2473 0.38266 6.5338 0.585 9.8595 0.3626l-1.204-32.292c-0.02872-2.6307-1.9154-4.72-4.3896-5.1902zm-26.612 34.095c-0.3701-0.01-0.73768-0.0154-1.107-0.0155 0.37007-0.001 0.73623 0.007 1.107 0.0155zm-1.107-0.0155c-0.7435-0.00007-1.4784 0.0261-2.2189 0.0699 0.73729-0.0452 1.4788-0.0678 2.2189-0.0699zm-2.2962 0.0691c-0.33848 0.0208-0.68203 0.0451-1.0199 0.076l-0.0022 0.0123c0.34229-0.0322 0.67921-0.0666 1.0221-0.0884z" fill="url(#radialGradient2104)"/>
  <path id="rect3233" opacity=".65" d="m38.948 83.405c-0.35346-0.06717-0.72015-0.09128-1.094-0.08946 0.000004 0-25.493 0.20521-25.574 0.20919-2.5802 0.12693-4.614 2.2292-4.9828 4.7729 0.49545-2.3474 2.4216-4.2453 4.8464-4.3645 0.0798-0.0039 25.317-0.37042 25.317-0.37042 3.1307-0.09121 5.5085 2.0969 5.5687 5.3217l0.98074 31.947c-3.1426 0.21016-6.2556 0.0379-9.3272-0.30772 3.2473 0.38265 6.5338 0.585 9.8595 0.36259l-1.204-32.292c-0.02872-2.6307-1.9154-4.72-4.3896-5.1902zm-26.612 34.095c-0.3701-0.01-0.73768-0.0154-1.107-0.0155 0.37007-0.001 0.73623 0.007 1.107 0.0155zm-1.107-0.0155c-0.7435-0.00007-1.4784 0.0261-2.2189 0.0699 0.73729-0.0452 1.4788-0.0678 2.2189-0.0699zm-2.2962 0.0691c-0.33848 0.0208-0.68203 0.0451-1.0199 0.076l-0.0022 0.0123c0.34229-0.0322 0.67921-0.0666 1.0221-0.0884z" fill="url(#radialGradient2101)"/>
  <path id="path3302" opacity=".48689" stroke-linejoin="round" d="m18.465 80.876 0.79433 2.6064-3.3935 0.01217-0.0064 5.1935 18.015-0.06464 0.0064-5.1935-3.1745 0.01139 0.80076-2.6121-5.5359 0.01986-1.9704 0.0071-5.5359 0.01986z" stroke-opacity=".16667" stroke-dashoffset="4" stroke="url(#linearGradient2080)" stroke-linecap="round" stroke-width="1.154" fill="none"/>
  <path id="path2036" opacity="0.39" d="m35.112 83.779-22.205 0.374c-3.1025 0.01692-5.5718 2.496-5.5403 5.5472l-0.4252 33.41c6.6415-14.29 13.97-28.285 28.17-39.331z" fill-rule="evenodd" fill="url(#linearGradient2094)"/>
  <path id="path3304" opacity=".9" stroke-linejoin="round" d="m18.434 80.832 0.79432 2.6064-3.3935 0.01217-0.0064 5.1935 18.015-0.06464 0.0064-5.1935-3.1745 0.01139 0.80076-2.6121-5.5359 0.01986-1.9704 0.0071-5.5359 0.01986z" stroke-opacity=".16667" stroke-dashoffset="4" stroke="#000" stroke-linecap="round" stroke-width=".35508" fill="none"/>
  <path id="rect3276" d="m18.432 80.828 1.5264 4.9632 2.4708-0.0089 5.0355-0.01807 2.4708-0.0089 1.5387-4.9742-5.5359 0.01986-1.9704 0.0071-5.5359 0.01986z" fill="url(#linearGradient2090)"/>
  <g id="g3885" opacity=".9" transform="matrix(.44524 .077791 -.076797 .43608 4.7485 72.35)">
   <path id="rect3097" stroke-linejoin="round" d="m19.621 29.087 14.024 82.373 63.711-11.779-16.563-82.481-61.172 11.887z" stroke-opacity=".19512" stroke-dashoffset="4" stroke="#000" stroke-linecap="round" stroke-width="1.7152" fill="#818181"/>
   <path id="rect3095" d="m19.043 28.826 14.114 82.374 63.711-11.78-16.563-82.48-61.262 11.886z" fill="#fff"/>
   <path id="rect1325" d="m19.879 29.363 13.549 79.827 37.472-6.9934l24.382-5.323-15.929-79.084-59.474 11.57z" fill="url(#radialGradient2125)"/>
  </g>
  <path id="path2931" opacity="0.39" d="m33.147 83.8-20.24 0.35249c-3.1025 0.01692-5.5718 2.496-5.5403 5.5472l-0.4252 33.411c6.6415-14.29 17.238-29.847 26.206-39.31z" fill-rule="evenodd" fill="url(#linearGradient2083)"/>
  <path id="path3686" opacity=".48689" stroke-linejoin="round" d="m18.465 80.876 0.79433 2.6064-3.3935 0.01217-0.0064 5.1935 18.015-0.06464 0.0064-5.1935-3.1745 0.01139 0.80076-2.6121-5.5359 0.01986-1.9704 0.0071-5.5359 0.01986z" stroke-opacity=".16667" stroke-dashoffset="4" stroke="url(#linearGradient2080)" stroke-linecap="round" stroke-width=".76520" fill="none"/>
  <rect id="rect3259" transform="matrix(.99999 -.0035878 -.0012354 1 0 0)" height="5.1855" width="18.015" y="83.511" x="15.938" fill="url(#linearGradient2077)"/>
  <g id="g4149" opacity=".9" transform="matrix(.42395 .062243 -.073124 .41737 22.477 71.685)">
   <g id="g4111" transform="matrix(.32653 -.060472 .060472 .32653 94.991 74.261)">
    <rect id="rect3892" stroke-dashoffset="4" height="30.46" width="30.46" stroke="#d5d5d5" y="-14.879" x="-176.74" stroke-width="3.2825" fill="url(#radialGradient2117)"/>
    <path id="path3894" d="m-177.73-5.5181 14.866 19.018 39.644-40.201-38.436 26.016-8.2582-13.144-7.8154 8.3111z" fill-rule="evenodd" fill="#729ed4"/>
   </g>
   <g id="g4117" transform="matrix(.32653 -.060472 .060472 .32653 90.254 53.88)">
    <rect id="rect4119" stroke-dashoffset="4" height="30.46" width="30.46" stroke="#d5d5d5" y="-14.879" x="-176.74" stroke-width="3.2825" fill="url(#radialGradient2117)"/>
    <path id="path4121" d="m-177.73-5.5181 14.866 19.018 39.644-40.201-38.436 26.016-8.2582-13.144-7.8154 8.3111z" fill-rule="evenodd" fill="#729ed4"/>
   </g>
   <g id="g4123" transform="matrix(.32653 -.060472 .060472 .32653 85.516 33.499)">
    <rect id="rect4125" stroke-dashoffset="4" height="30.46" width="30.46" stroke="#d5d5d5" y="-14.879" x="-176.74" stroke-width="3.2825" fill="url(#radialGradient2117)"/>
    <path id="path4127" d="m-177.73-5.5181 14.866 19.018 39.644-40.201-38.436 26.016-8.2582-13.144-7.8154 8.3111z" fill-rule="evenodd" fill="#729ed4"/>
   </g>
   <g id="g4129" transform="matrix(.32653 -.060472 .060472 .32653 99.729 94.642)">
    <rect id="rect4131" stroke-dashoffset="4" height="30.46" width="30.46" stroke="#d5d5d5" y="-14.879" x="-176.74" stroke-width="3.2825" fill="url(#radialGradient2117)"/>
    <path id="path4133" d="m-177.73-5.5181 14.866 19.018 39.644-40.201-38.436 26.016-8.2582-13.144-7.8154 8.3111z" fill-rule="evenodd" fill="#729ed4"/>
   </g>
  </g>
  <rect id="rect3674" opacity=".27049" transform="matrix(.99946 -.032847 .00085889 1 0 0)" height=".21033" width="18.055" y="88.818" x="15.762" fill="#7ea6d5"/>
  <rect id="rect3676" opacity=".27049" transform="matrix(.99946 -.032847 .00085889 1 0 0)" height=".43268" width="18.025" y="88.818" x="15.762" fill="#7ea6d5"/>
  <rect id="rect4889" opacity=".36475" fill-opacity=".36327" rx="0.989" ry=".98977" transform="matrix(.99994 -.011188 -.011578 .99993 0 0)" width="18.765" y="91.947" x="11.835" height="2.1838" fill="#1e3e64"/>
  <rect id="rect5764" opacity=".36475" fill-opacity=".36327" rx="0.989" ry=".98976" transform="matrix(.99994 -.011188 -.011578 .99993 0 0)" width="18.765" y="100.68" x="12.244" height="2.1838" fill="#1e3e64"/>
  <path id="path2935" d="m38.218 83.495c-0.25929-0.03406-0.52818-0.05286-0.79732-0.05155l-24.711 0.40878c-3.1317 0.01529-5.6242 2.5093-5.5906 5.5798l-0.41652 34.453c0.01317 1.2062 1.0134 2.1657 2.2436 2.1596l33.167-0.15997c1.2303-0.006 2.2156-0.97894 2.2024-2.1852l-1.186-34.723c-0.03065-2.8066-2.1537-5.1093-4.9116-5.4715z" fill="url(#linearGradient2057)"/>
  <rect id="rect5766" opacity=".36475" fill-opacity=".36327" rx="0.989" ry=".98976" transform="matrix(.99994 -.011188 -.011578 .99993 0 0)" width="18.765" y="109.42" x="12.653" height="2.1838" fill="#1e3e64"/>
  <rect id="rect5768" opacity=".36475" fill-opacity=".36327" rx="0.989" ry=".98976" transform="matrix(.99994 -.011188 -.011578 .99993 0 0)" width="18.765" y="118.16" x="13.061" height="2.1838" fill="#1e3e64"/>
  <rect id="rect7262" transform="matrix(.99999 -.0035878 -.0012354 1 0 0)" height="5.1855" width="18.015" y="83.511" x="15.938" fill="url(#linearGradient2051)"/>
  <path id="rect1479" opacity=".45082" d="m42.368 125.57-33.406 0.20462-0.02504-0.004-0.0022 0.0123c-1.1423-0.0755-1.955-0.79831-2.2024-1.636 0.18109 0.88351 0.69556 1.8759 2.2071 1.9023l-0.0022 0.0123 33.431-0.20025-0.000414-0.29076zm-35.664-1.55c0.0017 0.01 0.0064 0.0167 0.0082 0.0267-0.0017-0.007-0.0066-0.0194-0.0082-0.0267zm0.006 0.039c0.0038 0.0209 0.01007 0.0446 0.01424 0.0657-0.0061-0.0217-0.0088-0.0438-0.01424-0.0657z" fill="url(#linearGradient2048)"/>
  <g id="g1652" transform="matrix(-.34999 .26511 .26577 .34941 4.6409 73.76)">
   <path id="path3180" d="m11.326 15.396c-0.000778-0.5303 1.8555-1.9483 5.1854-1.9531 3.3626-0.0049 5.1901 1.2738 5.1911 1.9381 0.000636 0.43235 0.0013 0.8647 0.0019 1.297-3.4589 0.005-6.9177 0.01004-10.377 0.01505-0.000629-0.43235-0.0013-0.86471-0.0019-1.2971" fill-rule="evenodd"/>
   <path id="path3299" d="m16.75 123.04 5.1522-24.905-0.000251-0.17288-10.377-0.16862 0.000295 0.23428 5.2246 25.013z" fill-rule="evenodd" stroke-width="0"/>
   <path id="path2247" d="m16.809 121.34 4.8103-23.219-0.000251-0.17287-9.8115-0.1489 0.000293 0.23429 5.0011 23.307z" fill-rule="evenodd" stroke-width="0" fill="url(#radialGradient2430)"/>
   <path id="rect2192" d="m16.715 98.875c1.2799-0.0019 1.7603-0.89432 2.2178-0.89499 0.07393-0.00011 0.14704 0.02564 0.21566 0.06201l-0.19886-82.139-5.0299 0.0073 0.19907 82.294c0.11395-0.12444 0.23024-0.21843 0.37494-0.21864 0.41817-0.0006 0.93547 0.89042 2.2213 0.88856z" fill="url(#radialGradient2432)"/>
   <path id="rect2190" d="m18.766 15.904 0.19876 82.076c0.43572 0.03558 0.74529 0.809 1.5179 0.80787 0.83261-0.0012 0.88115-0.76928 1.4193-0.77319l-0.19882-82.115-2.9371 0.0043z" fill="url(#radialGradient2434)"/>
   <path id="path2233" opacity=".35349" d="m18.96 94.916 0.0047 3.213c0.43351 0.03557 0.74173 0.95757 1.5104 0.95645 0.82837-0.0012 0.87645-0.91782 1.4118-0.92174l-0.0047-3.2519-2.9221 0.0042z"/>
   <path id="path2231" opacity=".38605" d="m14.492 96.426 0.0024 1.6482-0.000618 0.06166c0.3522 0.01095 0.69762 0.9194 1.8943 1.026l0.06387-0.0001 0.45509-0.00066 0.06388-0.00009c1.2085-0.11006 1.5402-1.031 1.9977-1.0316l-0.0071-1.7504-4.4695 0.04709z" fill="#252525"/>
   <path id="path2229" opacity=".35349" d="m11.569 96.412-0.04326 1.6193c0.016-0.00006 0.01681 0.13677 0.0329 0.13675 0.32832-0.00048 0.69673 0.88599 1.3477 0.998l0.05588-0.00009 0.24751-0.00035 0.03193-0.00006c0.6726-0.10928 0.90948-0.97202 1.252-1.0306l-0.0025-1.7272-2.9222 0.0042z" fill="#131313"/>
   <path id="rect1315" d="m13.086 98.857c0.79723-0.01046 0.98066-0.87 1.4072-0.87062l-0.19875-82.076-2.9684 0.0043 0.19881 82.115c0.01625-0.00007 0.03231-0.00005 0.04866-0.00006 0.33352-0.00049 0.70916 0.83787 1.5124 0.82742z" fill="#131313"/>
   <path id="path3301" d="m82.173 7.4623c0 0.5365-21.264 0.97142-47.495 0.97142s-47.495-0.43492-47.495-0.97142 21.264-0.97142 47.495-0.97142 47.495 0.43492 47.495 0.97142z" transform="matrix(-.00082660 -.70722 -1.3453 .0041539 22.856 73.623)" fill="url(#radialGradient2436)"/>
   <path id="path3321" d="m106.56 7.4623c0 0.23364-32.183 0.42305-71.883 0.42305s-71.883-0.18941-71.883-0.42305 32.183-0.42305 71.883-0.42305c38.821 0 70.628 0.1814 71.848 0.40976" transform="matrix(-.0017074 -.58670 -.97629 .0010384 21.539 77.745)" fill="url(#radialGradient2438)"/>
   <path id="path2274" d="m11.338 21.138c-0.32951 1.2245-0.2777 2.7765 0.0056 3.885l8.3067-0.04986-0.0056-3.885-8.3067 0.04985zm7.43-0.04857 0.0056 3.885 2.9224-0.0042c0.30373-1.0487 0.33037-2.598-0.0056-3.885l-2.9224 0.0042z" fill="url(#radialGradient2440)"/>
   <path id="path2265" d="m18.985 112.35c-1.1118 0.84784-3.4187 0.12334-4.4201 0.17662l2.1824 10.507 2.2378-10.684z" fill-rule="evenodd"/>
   <rect id="rect3215" transform="rotate(-.083067)" height=".62929" width="4.4739" y="15.432" x="14.27" fill="url(#linearGradient2442)"/>
   <rect id="rect3205" transform="rotate(-.083067)" height=".97932" width="4.4739" y="15.082" x="14.27" fill="url(#radialGradient2444)"/>
   <path id="path3233" d="m15.608 13.591c2.0127-0.15565 3.9988 0.3424 4.1547 0.42159 0.15589 0.07919-2.2716-0.29302-3.8365-0.05552-1.5529 0.23568-2.9302 1.4459-3.1012 1.4584-0.17103 0.01246-1.4978-0.09237-0.85615-0.62187 0.67117-0.55382 2.0852-1.0817 3.6391-1.2026z" fill-rule="evenodd" fill="url(#linearGradient2446)"/>
   <rect id="rect3243" transform="rotate(-.083067)" height=".62929" width="2.9669" y="15.432" x="11.303" fill="url(#linearGradient2448)"/>
   <rect id="rect3245" transform="rotate(-.083067)" height=".97932" width="2.9669" y="15.082" x="11.303" fill="url(#radialGradient2450)"/>
   <rect id="rect3265" transform="matrix(-1 .0014498 .0014498 1 0 0)" height=".62929" width="2.9438" y="15.432" x="-21.68" fill="url(#linearGradient2452)"/>
   <rect id="rect3267" transform="matrix(-1 .0014498 .0014498 1 0 0)" height=".97932" width="2.9438" y="15.082" x="-21.68" fill="url(#radialGradient2454)"/>
   <path id="text3284" fill="#999" d="m20.056 90.07c0.000235 0.25238 0.0498 0.44806 0.14867 0.58705 0.0989 0.13901 0.23797 0.20842 0.41725 0.20825 0.17852-0.00017 0.31709-0.06985 0.41572-0.20902 0.09861-0.1392 0.14782-0.33496 0.14758-0.58733-0.000237-0.25382-0.0498-0.45021-0.14869-0.58922-0.09889-0.139-0.23759-0.2084-0.41611-0.20824-0.17928 0.00017-0.31823 0.06985-0.41685 0.20903-0.09863 0.13918-0.14782 0.33567-0.14758 0.58948m-0.31792 0.00029c-0.000475-0.51621 0.07738-0.92065 0.2336-1.2133 0.15621-0.29266 0.37221-0.43912 0.64796-0.43938 0.275-0.00025 0.49087 0.1458 0.64764 0.43817 0.15676 0.29238 0.23538 0.69667 0.23587 1.2129 0.000476 0.51477-0.07738 0.91921-0.2336 1.2133-0.15622 0.29266-0.37182 0.43912-0.64682 0.43938-0.27575 0.00026-0.49201-0.1458-0.64876-0.43817-0.15677-0.29381-0.23539-0.6981-0.23588-1.2129m0.86006-3.9111 0.86724-1.115 0.000813 0.86252-0.58044 0.75119 0.58184 0.74367 0.000812 0.8668-0.86934-1.1133-0.83195 1.0719-0.000813-0.86466 0.54743-0.70385-0.54874-0.70068-0.000815-0.86896 0.83396 1.0704m-0.83405-1.1607-0.000846-0.90552 0.60551-0.73187-0.60689-0.73074-0.000847-0.90767 0.98566 1.2229 0.71674-0.00068 0.000779 0.82811-0.71674 0.00066-0.98336 1.2248m1.5687-6.5187c0.05336 0.20644 0.09344 0.42077 0.12024 0.643 0.0268 0.22224 0.04031 0.45166 0.04053 0.68825 0.0005 0.53486-0.07811 0.95865-0.23582 1.2714-0.15846 0.31275-0.37331 0.46924-0.64451 0.4695-0.27424 0.00026-0.49013-0.15871-0.64767-0.47689-0.15756-0.31819-0.23658-0.75403-0.2371-1.3075-0.000196-0.21366 0.01024-0.41801 0.03133-0.61304 0.02108-0.19647 0.05245-0.38146 0.09405-0.55502l0.35212-0.00032c-0.05377 0.17929-0.09387 0.35785-0.12029 0.53568-0.02643 0.17639-0.03955 0.35351-0.03938 0.53131 0.000307 0.3298 0.04955 0.58427 0.1477 0.76342 0.09741 0.17772 0.2369 0.2665 0.41844 0.26632 0.18004-0.00016 0.31898-0.08634 0.41682-0.2585 0.09783-0.17216 0.1466-0.41668 0.1463-0.73359-0.000076-0.08602-0.0028-0.1656-0.0082-0.23874-0.0061-0.07455-0.01532-0.14123-0.02753-0.2l-0.33045 0.0003 0.000475 0.50547-0.29398 0.00027-0.0012-1.2905 0.81815-0.00077m-1.5755-0.72552-0.0021-2.2348 0.33158-0.000316 0.0013 1.4067 0.31678-0.000297-0.0012-1.3228 0.33159-0.000313 0.0012 1.3228 0.38971-0.000364-0.0014-1.454 0.33159-0.000313 0.0021 2.2821-1.7012 0.0016m-0.0028-3.0113-0.00087-0.92488 1.1657-1.169-1.1668 0.0011-0.000734-0.78507 1.7012-0.0016 0.000869 0.92489-1.1657 1.169 1.1668-0.0011 0.000733 0.78507-1.7012 0.0016m-0.0049-5.2138-0.000862-0.92488 1.1657-1.169-1.1668 0.0011-0.000741-0.78508 1.7012-0.0016 0.000871 0.92488-1.1657 1.169 1.1668-0.0011 0.000734 0.78507-1.7013 0.0016m-0.03501-4.5211c-0.000277-0.30542 0.04165-0.54636 0.1258-0.72282 0.08416-0.17788 0.1984-0.26689 0.34274-0.26703 0.14433-0.000132 0.25836 0.08795 0.34209 0.26424 0.08373 0.1763 0.12574 0.41788 0.12603 0.72473 0.000292 0.30686-0.04126 0.54924-0.12467 0.72712-0.08339 0.17645-0.19726 0.26475-0.34159 0.26488-0.14434 0.000139-0.25874-0.08795-0.34324-0.26424-0.08449-0.17773-0.12686-0.42002-0.12716-0.72688m1.0799 0.88515-0.0017-1.7702 0.22789-0.000215 0.0017 1.7702-0.2279 0.000208m-0.889-0.886c0.000123 0.12045 0.02414 0.21364 0.07205 0.27955 0.04792 0.06449 0.11594 0.09668 0.20406 0.0966 0.08812-0.000081 0.1557-0.03241 0.20274-0.09698 0.04704-0.066 0.0705-0.15923 0.07038-0.27968-0.000102-0.11901-0.02374-0.21076-0.0709-0.27525-0.04716-0.06591-0.1148-0.09883-0.20292-0.09875-0.08812 0.000085-0.15608 0.03313-0.20388 0.09913-0.04779 0.06458-0.07163 0.15637-0.07153 0.27538m0.6165-4.8186c0.02943-0.21654 0.08093-0.38078 0.15451-0.49269 0.07282-0.11335 0.16583-0.17008 0.27902-0.17018 0.16864-0.000158 0.29713 0.1216 0.38548 0.36529 0.08759 0.24369 0.1316 0.59926 0.13204 1.0667 0.000154 0.1649-0.0069 0.33053-0.02118 0.49688-0.01351 0.16491-0.03425 0.3284-0.0622 0.49046l-0.33844 0.000317c0.04088-0.1549 0.07188-0.30836 0.09301-0.46038 0.02037-0.15345 0.03048-0.30402 0.03035-0.45172-0.000208-0.21939-0.02049-0.38714-0.06086-0.50325-0.04038-0.11754-0.09817-0.17628-0.17338-0.17621-0.07748 0.000075-0.13592 0.06035-0.17531 0.18084-0.04015 0.11906-0.06011 0.29545-0.05989 0.52918l0.00031 0.33124-0.28259 0.000265-0.000327-0.34844c-0.000194-0.20792-0.01743-0.36276-0.05172-0.46454-0.03504-0.10177-0.08788-0.15263-0.15852-0.15256-0.06534 0.000064-0.1158 0.04958-0.15142 0.14856-0.03561 0.09898-0.05333 0.2388-0.05317 0.41947 0.000134 0.13336 0.0082 0.26814 0.02431 0.40434 0.01609 0.13621 0.03976 0.27169 0.07103 0.40645l-0.32133 0.0003c-0.02446-0.16344-0.04284-0.32546-0.05515-0.48605-0.0123-0.16058-0.01852-0.31831-0.01867-0.47318-0.000382-0.41727 0.03578-0.72918 0.10851-0.93574 0.07198-0.20798 0.18089-0.31205 0.32674-0.31219 0.09952-0.000088 0.18124 0.04931 0.24514 0.14818 0.06313 0.09888 0.10771 0.2451 0.13372 0.43865"/>
  </g>
 </g>
</svg>
