<?xml version="1.0" encoding="UTF-8" standalone="no"?>
<!-- Created with Inkscape (http://www.inkscape.org/) -->
<svg id="svg2307" xmlns:rdf="http://www.w3.org/1999/02/22-rdf-syntax-ns#" xmlns="http://www.w3.org/2000/svg" height="48" width="48" version="1.0" xmlns:xlink="http://www.w3.org/1999/xlink" xmlns:cc="http://web.resource.org/cc/" xmlns:dc="http://purl.org/dc/elements/1.1/">
 <metadata>
  <rdf:RDF xmlns:rdf="http://www.w3.org/1999/02/22-rdf-syntax-ns#" xmlns:cc="http://web.resource.org/cc/" xmlns:dc="http://purl.org/dc/elements/1.1/">
   <cc:Work rdf:about="">
    <dc:title>Photos</dc:title>
    <dc:description/>
    <dc:subject>
     <rdf:Bag>
      <rdf:li>unsorted</rdf:li>
     </rdf:Bag>
    </dc:subject>
    <dc:publisher>
     <cc:Agent rdf:about="http://www.openclipart.org/">
      <dc:title>Open Clip Art Library, Source: GNOME Icon Theme, Source: GNOME Icon Theme, Source: GNOME Icon Theme, Source: GNOME Icon Theme</dc:title>
     </cc:Agent>
    </dc:publisher>
    <dc:creator>
     <cc:Agent>
      <dc:title>Lapo Calamandrei</dc:title>
     </cc:Agent>
    </dc:creator>
    <dc:rights>
     <cc:Agent>
      <dc:title>Lapo Calamandrei</dc:title>
     </cc:Agent>
    </dc:rights>
    <dc:date>2006-06-11</dc:date>
    <dc:format>image/svg+xml</dc:format>
    <dc:type rdf:resource="http://purl.org/dc/dcmitype/StillImage"/>
    <cc:license rdf:resource="http://creativecommons.org/licenses/GPL/2.0/"/>
    <dc:language>en</dc:language>
   </cc:Work>
  </rdf:RDF>
 </metadata>
 <defs id="defs2309">
  <linearGradient id="linearGradient3705">
   <stop id="stop3707" stop-color="#73d216" offset="0"/>
   <stop id="stop3709" stop-color="#73d216" stop-opacity="0" offset="1"/>
  </linearGradient>
  <linearGradient id="linearGradient3697">
   <stop id="stop3699" stop-color="#4e9a06" offset="0"/>
   <stop id="stop3701" stop-color="#4e9a06" stop-opacity="0" offset="1"/>
  </linearGradient>
  <linearGradient id="linearGradient3513">
   <stop id="stop3515" stop-color="#f57900" offset="0"/>
   <stop id="stop3517" stop-color="#fce94f" offset="1"/>
  </linearGradient>
  <linearGradient id="linearGradient3493">
   <stop id="stop3495" stop-color="#fff" offset="0"/>
   <stop id="stop3503" stop-color="#fff" offset=".81309"/>
   <stop id="stop3501" stop-color="#fdf4a7" offset=".84009"/>
   <stop id="stop3497" stop-color="#fce94f" stop-opacity="0" offset="1"/>
  </linearGradient>
  <linearGradient id="linearGradient3431">
   <stop id="stop3433" stop-color="#fff" offset="0"/>
   <stop id="stop3435" stop-color="#fff" stop-opacity="0" offset="1"/>
  </linearGradient>
  <linearGradient id="linearGradient3405">
   <stop id="stop3407" stop-color="#729fcf" offset="0"/>
   <stop id="stop3409" stop-color="#fff" offset="1"/>
  </linearGradient>
  <linearGradient id="linearGradient3397">
   <stop id="stop3399" stop-color="#e9b96e" offset="0"/>
   <stop id="stop3401" stop-color="#653f01" offset="1"/>
  </linearGradient>
  <linearGradient id="linearGradient3389">
   <stop id="stop3391" stop-color="#8f5902" offset="0"/>
   <stop id="stop3393" stop-color="#8f5902" stop-opacity="0" offset="1"/>
  </linearGradient>
  <linearGradient id="linearGradient3395" y2="-60.439" xlink:href="#linearGradient3389" gradientUnits="userSpaceOnUse" y1="-59.281" x2="34.938" x1="34.938"/>
  <linearGradient id="linearGradient3415" y2="-65.246" xlink:href="#linearGradient3397" gradientUnits="userSpaceOnUse" y1="-53.602" x2="12.228" x1="12.228"/>
  <radialGradient id="radialGradient3440" xlink:href="#linearGradient3431" gradientUnits="userSpaceOnUse" cy="-81.039" cx="7.0864" gradientTransform="matrix(2.1388 0 0 .78131 -10.156 -10.684)" r="15.5"/>
  <linearGradient id="linearGradient3455" y2="-63.038" xlink:href="#linearGradient3405" gradientUnits="userSpaceOnUse" y1="-73.302" x2="21.812" x1="21.812"/>
  <radialGradient id="radialGradient3459" xlink:href="#linearGradient3431" gradientUnits="userSpaceOnUse" cy="-76.967" cx="6.6731" gradientTransform="matrix(2.5832 0 0 .94363 -13.122 -28.19)" r="15.5"/>
  <radialGradient id="radialGradient3499" xlink:href="#linearGradient3493" gradientUnits="userSpaceOnUse" cy="-96" cx="22" gradientTransform="translate(-5 2)" r="4"/>
  <linearGradient id="linearGradient3519" y2="-94.358" xlink:href="#linearGradient3513" gradientUnits="userSpaceOnUse" y1="-104.15" x2="23.932" x1="23.932"/>
  <radialGradient id="radialGradient3672" xlink:href="#linearGradient3431" gradientUnits="userSpaceOnUse" cy="-81.039" cx="7.0864" gradientTransform="matrix(2.1388 0 0 .78131 29.844 -10.684)" r="15.5"/>
  <linearGradient id="linearGradient3680" y2="-63.038" xlink:href="#linearGradient3405" gradientUnits="userSpaceOnUse" y1="-73.302" gradientTransform="translate(40)" x2="21.812" x1="21.812"/>
  <linearGradient id="linearGradient3703" y2="-64.375" xlink:href="#linearGradient3697" gradientUnits="userSpaceOnUse" y1="-58.5" x2="61.5" x1="62.375"/>
  <linearGradient id="linearGradient3711" y2="-68.375" xlink:href="#linearGradient3705" gradientUnits="userSpaceOnUse" y1="-61.75" x2="65.875" x1="66.375"/>
  <radialGradient id="radialGradient3506" gradientUnits="userSpaceOnUse" cy="23.5" cx="24" gradientTransform="matrix(1.0846 0 0 1.1782 -2.03 -4.1887)" r="24">
   <stop id="stop3546" stop-color="#2e3436" offset="0"/>
   <stop id="stop3548" stop-color="#2e3436" stop-opacity="0" offset="1"/>
  </radialGradient>
  <radialGradient id="radialGradient3508" gradientUnits="userSpaceOnUse" cy="23.5" cx="24" gradientTransform="matrix(1.0846 0 0 3.6828 -2.03 -63.047)" r="24">
   <stop id="stop3540" stop-color="#2e3436" offset="0"/>
   <stop id="stop3542" stop-color="#2e3436" stop-opacity="0" offset="1"/>
  </radialGradient>
  <radialGradient id="radialGradient3528" gradientUnits="userSpaceOnUse" cy="23.5" cx="24" gradientTransform="matrix(1.0846 0 0 3.4022 -2.03 -56.451)" r="24">
   <stop id="stop3532" stop-color="#888a85" offset="0"/>
   <stop id="stop3534" stop-color="#888a85" stop-opacity="0" offset="1"/>
  </radialGradient>
  <radialGradient id="radialGradient3536" gradientUnits="userSpaceOnUse" cy="23.5" cx="24" gradientTransform="matrix(1.0846 0 0 3.6828 -2.03 -63.047)" r="24">
   <stop id="stop3524" stop-color="#888a85" offset="0"/>
   <stop id="stop3526" stop-color="#888a85" stop-opacity="0" offset="1"/>
  </radialGradient>
  <radialGradient id="radialGradient3471" gradientUnits="userSpaceOnUse" cy="24.218" cx="24.218" r="24.218">
   <stop id="stop3603" offset="0"/>
   <stop id="stop3605" stop-opacity="0" offset="1"/>
  </radialGradient>
  <linearGradient id="linearGradient3489" y2="35.812" gradientUnits="userSpaceOnUse" y1="27.988" gradientTransform="translate(-70)" x2="78.938" x1="86.5">
   <stop id="stop3759" offset="0"/>
   <stop id="stop3761" stop-opacity="0" offset="1"/>
  </linearGradient>
  <linearGradient id="linearGradient3491" y2="-115.58" gradientUnits="userSpaceOnUse" y1="-68.606" x2="12.313" x1="33.067">
   <stop id="stop3554" stop-color="#d3d7cf" offset="0"/>
   <stop id="stop3556" stop-color="#eeeeec" offset="1"/>
  </linearGradient>
  <radialGradient id="radialGradient3538" gradientUnits="userSpaceOnUse" cy="36.081" cx="76.625" gradientTransform="matrix(1.625 0 0 1.2594 -47.891 -12.189)" r="20">
   <stop id="stop3522" stop-color="#d3d7cf" offset="0"/>
   <stop id="stop3525" stop-color="#888a85" offset="1"/>
  </radialGradient>
  <linearGradient id="linearGradient3550" y2="56.047" gradientUnits="userSpaceOnUse" y1="14.55" x2="71.388" x1="64.989">
   <stop id="stop3544" stop-color="#fff" offset="0"/>
   <stop id="stop3547" stop-color="#fff" stop-opacity=".48669" offset="1"/>
  </linearGradient>
  <linearGradient id="linearGradient3779" y2="44.995" gradientUnits="userSpaceOnUse" y1="11.23" x2="44.125" x1="43.31">
   <stop id="stop3775" stop-color="#fff" offset="0"/>
   <stop id="stop3777" stop-color="#fff" stop-opacity="0" offset="1"/>
  </linearGradient>
  <radialGradient id="radialGradient3830" gradientUnits="userSpaceOnUse" cy="32.694" cx="31.123" gradientTransform="matrix(.87350 0 0 .87350 4.5333 3.4959)" r="8.5509">
   <stop id="stop3822" stop-color="#eeeeec" offset="0"/>
   <stop id="stop3824" stop-color="#babdb6" offset="1"/>
  </radialGradient>
  <radialGradient id="radialGradient3832" gradientUnits="userSpaceOnUse" cy="27.836" cx="35.88" gradientTransform="matrix(.87350 0 0 .87350 4.5333 3.4959)" r="8.5509">
   <stop id="stop3808" stop-color="#eeeeec" offset="0"/>
   <stop id="stop3810" stop-color="#888a85" offset="1"/>
  </radialGradient>
  <linearGradient id="linearGradient4846" y2="34.333" gradientUnits="userSpaceOnUse" y1="23.667" x2="30.833" x1="38">
   <stop id="stop4842" offset="0"/>
   <stop id="stop4844" stop-opacity="0" offset="1"/>
  </linearGradient>
  <radialGradient id="radialGradient4854" gradientUnits="userSpaceOnUse" cy="24" cx="39.5" gradientTransform="matrix(1.8338 0 0 1.8338 -32.935 -20.011)" r="9">
   <stop id="stop3850" stop-color="#fff" offset="0"/>
   <stop id="stop3852" stop-color="#888a85" offset="1"/>
  </radialGradient>
  <linearGradient id="linearGradient3524">
   <stop id="stop5270" stop-color="#729fcf" stop-opacity="0" offset="0"/>
   <stop id="stop5272" stop-color="#729fcf" stop-opacity="0" offset="0.85"/>
   <stop id="stop3528" stop-color="#729fcf" offset="1"/>
  </linearGradient>
  <linearGradient id="linearGradient4179">
   <stop id="stop4181" offset="0"/>
   <stop id="stop4183" stop-opacity="0" offset="1"/>
  </linearGradient>
  <linearGradient id="linearGradient4457">
   <stop id="stop4459" stop-color="#c00" offset="0"/>
   <stop id="stop4461" stop-color="#ef2929" offset="1"/>
  </linearGradient>
  <linearGradient id="linearGradient5639" y2="40.005" xlink:href="#linearGradient4457" gradientUnits="userSpaceOnUse" y1="31.07" gradientTransform="translate(-1,-1)" x2="29" x1="28.976"/>
  <linearGradient id="linearGradient5643" y2="40.005" xlink:href="#linearGradient4457" gradientUnits="userSpaceOnUse" y1="31.07" gradientTransform="matrix(.75005 0 0 .75005 49.873 11.124)" x2="29" x1="28.976"/>
  <linearGradient id="linearGradient5654" y2="40.005" xlink:href="#linearGradient4457" gradientUnits="userSpaceOnUse" y1="31.07" gradientTransform="translate(-222.45 -277.86)" x2="29" x1="28.976"/>
  <linearGradient id="linearGradient5664" y2="27.983" xlink:href="#linearGradient4179" gradientUnits="userSpaceOnUse" y1="37.319" x2="26.596" x1="31.122"/>
  <radialGradient id="radialGradient5688" xlink:href="#linearGradient3524" gradientUnits="userSpaceOnUse" cy="23.998" cx="24" gradientTransform="matrix(1.7067 -3.1347e-7 3.135e-7 1.7069 -278.41 -270.82)" r="9.375"/>
  <radialGradient id="radialGradient5721" xlink:href="#linearGradient3524" gradientUnits="userSpaceOnUse" cy="23.998" cx="24" gradientTransform="matrix(2.1333 5.9701e-7 -5.9707e-7 2.1336 -288.65 -281.06)" r="9.375"/>
  <linearGradient id="linearGradient5726" y2="27.917" xlink:href="#linearGradient4179" gradientUnits="userSpaceOnUse" y1="32.814" x2="20.205" x1="14.548"/>
  <linearGradient id="linearGradient5734" y2="22.098" xlink:href="#linearGradient4179" gradientUnits="userSpaceOnUse" y1="18.053" x2="28.883" x1="40.308"/>
  <radialGradient id="radialGradient5770" xlink:href="#linearGradient3524" gradientUnits="userSpaceOnUse" cy="23.998" cx="24" gradientTransform="matrix(2.56 1.629e-7 -1.6291e-7 2.5602 -298.89 -291.3)" r="9.375"/>
  <radialGradient id="radialGradient5783" gradientUnits="userSpaceOnUse" cy="73.616" cx="6.7027" gradientTransform="scale(1.9022 .52570)" r="7.2284">
   <stop id="stop10693" offset="0"/>
   <stop id="stop10695" stop-opacity="0" offset="1"/>
  </radialGradient>
  <radialGradient id="radialGradient5795" gradientUnits="userSpaceOnUse" cy="13.847" cx="12.705" gradientTransform="matrix(.063709 -1.4245 1.5473 .069211 -9.5306 30.987)" r="9.375">
   <stop id="stop3529" stop-color="#fff" offset="0"/>
   <stop id="stop3531" stop-color="#fff" stop-opacity="0" offset="1"/>
  </radialGradient>
  <linearGradient id="linearGradient5797" y2="19.27" gradientUnits="userSpaceOnUse" y1="-.51991" x2="-.51991" x1="-.51991">
   <stop id="stop3694" stop-color="#2e3436" offset="0"/>
   <stop id="stop3696" stop-color="#babdb6" offset="1"/>
  </linearGradient>
  <radialGradient id="radialGradient5799" gradientUnits="userSpaceOnUse" cy="7.1987" cx="6.8798" gradientTransform="matrix(1.2407 0 0 1.1576 -1.7136 -1.1347)" r="9.375">
   <stop id="stop3672" stop-color="#d3d7cf" offset="0"/>
   <stop id="stop3674" stop-color="#555753" offset="1"/>
  </radialGradient>
  <linearGradient id="linearGradient5843" y2="13.041" gradientUnits="userSpaceOnUse" y1="10.495" gradientTransform="translate(-261.45 -253.86)" x2="36.958" x1="11.205">
   <stop id="stop3804" stop-color="#fff" offset="0"/>
   <stop id="stop3806" stop-color="#fff" stop-opacity="0" offset="1"/>
  </linearGradient>
  <radialGradient id="radialGradient5853" gradientUnits="userSpaceOnUse" cy=".99004" cx="-1.0017" gradientTransform="matrix(-.31003 2.1109 -2.0828 -.30587 -243.7 -237.44)" r="9.9205">
   <stop id="stop3732" stop-color="#eeeeec" offset="0"/>
   <stop id="stop3734" stop-color="#888a85" offset="1"/>
  </radialGradient>
  <radialGradient id="radialGradient5856" gradientUnits="userSpaceOnUse" cy=".99004" cx="-1.0017" gradientTransform="matrix(-.12758 1.4161 -1.6301 -.14685 -243.97 -238.3)" r="9.9205">
   <stop id="stop3678" stop-color="#eeeeec" offset="0"/>
   <stop id="stop3680" stop-color="#555753" offset="1"/>
  </radialGradient>
  <linearGradient id="linearGradient5858" y2="5.375" gradientUnits="userSpaceOnUse" y1="34.95" gradientTransform="translate(-261.45 -253.86)" x2="20.312" x1="17.062">
   <stop id="stop1559" stop-color="#2e3436" offset="0"/>
   <stop id="stop1561" stop-color="#888a85" offset="1"/>
  </linearGradient>
  <linearGradient id="linearGradient5861" y2="24" gradientUnits="userSpaceOnUse" y1="24" gradientTransform="translate(-261.45 -253.86)" x2="37" x1="11">
   <stop id="stop3792" stop-color="#eeeeec" offset="0"/>
   <stop id="stop3794" stop-color="#e9b96e" offset="1"/>
  </linearGradient>
  <radialGradient id="radialGradient5864" gradientUnits="userSpaceOnUse" cy="8.6957" cx="14.984" gradientTransform="matrix(-.037060 .63242 -1.644 -.096340 -231.62 -255.7)" r="14">
   <stop id="stop3778" stop-color="#eeeeec" offset="0"/>
   <stop id="stop3780" stop-color="#e9b96e" offset="1"/>
  </radialGradient>
  <linearGradient id="linearGradient5868" y2="36.832" gradientUnits="userSpaceOnUse" y1="36.22" gradientTransform="translate(-261.45 -173.86)" x2="46.614" x1="43.145">
   <stop id="stop4445" stop-color="#2e3436" offset="0"/>
   <stop id="stop4447" stop-opacity="0" offset="1"/>
  </linearGradient>
  <radialGradient id="radialGradient5875" xlink:href="#linearGradient3524" gradientUnits="userSpaceOnUse" cy="9.375" cx="9.375" r="9.375"/>
 </defs>
 <g id="layer4" display="none">
  <image id="image3690" width="67.243" xlink:href="maudiodx4.jpg" height="39.963" y="4.3937" x="11.504"/>
 </g>
 <g id="layer3" display="none">
  <g id="g2475" transform="translate(-80)">
   <rect id="rect2477" height="1" width="48" y="18" x="0" fill="url(#radialGradient3508)"/>
   <rect id="rect2479" height="1" width="48" y="38" x="0" fill="url(#radialGradient3508)"/>
   <rect id="rect2481" height="1" width="48" y="28" x="0" fill="url(#radialGradient3508)"/>
   <rect id="rect2483" height="1" width="48" y="8" x="0" fill="url(#radialGradient3536)"/>
  </g>
  <g id="g2485" transform="translate(-80,2)" fill="url(#radialGradient3506)">
   <rect id="rect2487" height="1" width="48" y="18" x="0"/>
   <rect id="rect2489" height="1" width="48" y="38" x="0"/>
   <rect id="rect2491" height="1" width="48" y="28" x="0"/>
   <rect id="rect2493" height="1" width="48" y="8" x="0"/>
  </g>
  <g id="g2495" transform="translate(-80,1)" fill="url(#radialGradient3528)">
   <rect id="rect2497" height="1" width="48" y="18" x="0"/>
   <rect id="rect2499" height="1" width="48" y="38" x="0"/>
   <rect id="rect2501" height="1" width="48" y="28" x="0"/>
   <rect id="rect2503" height="1" width="48" y="8" x="0"/>
  </g>
 </g>
 <g id="layer1">
  <g id="g3446">
   <path id="path3599" opacity=".70115" d="m48.437 24.218a24.218 24.218 0 1 1 -48.437 0 24.218 24.218 0 1 1 48.437 0z" transform="matrix(.94892 .28565 -.26185 .86984 7.7139 -2.162)" fill="url(#radialGradient3471)"/>
   <g id="g3612" transform="matrix(.96448 -.26417 .26417 .96448 21.295 86.053)">
    <rect id="rect3614" stroke-linejoin="round" rx=".96564" ry=".86009" height="22" width="38" stroke="#888a85" stroke-linecap="round" y="-77.5" x="1.5" stroke-width="1.1" fill="#eeeeec"/>
    <rect id="rect3616" stroke-linejoin="round" rx="0" ry="0" height="20" width="36" stroke="#fff" stroke-linecap="round" y="-76.5" x="2.5" fill="none"/>
    <g id="g3618">
     <rect id="rect3620" rx="0" ry="0" height="16" width="32" stroke="#729fcf" stroke-linecap="round" y="-74.5" x="4.5" fill="url(#linearGradient3455)"/>
     <path id="path3622" d="m5-58.5c1.4375-7.5 3.9477-4.799 6.188-11.188 1.313 0.772 1.799 0.268 2.812 1.126 1.009 1.252 1.472 3.231 2 5.124 2.903-4.562 3.561 1.438 7.188 2.376 3.812-1.411 4.312-9.938 6.312-8.938 0.818-0.762 1.564-5.578 2.5-2 1 4 3.664 8.257 4.5 12v1.5h-31.5z" fill-rule="evenodd" stroke="url(#linearGradient3395)" stroke-width="1px" fill="url(#linearGradient3415)"/>
     <path id="path3624" opacity=".52490" d="m5-74h31v7c-16.342-3.067-26.417 1.721-31 7v-14z" fill="url(#radialGradient3440)"/>
    </g>
   </g>
   <g id="g3720" transform="matrix(.96593 .25882 -.25882 .96593 -54.178 80.868)">
    <rect id="rect3722" stroke-linejoin="round" rx=".96564" ry=".86009" height="22" width="38" stroke="#888a85" stroke-linecap="round" y="-77.5" x="41.5" stroke-width="1.1" fill="#eeeeec"/>
    <rect id="rect3724" stroke-linejoin="round" rx="0" ry="0" height="20" width="36" stroke="#fff" stroke-linecap="round" y="-76.5" x="42.5" fill="none"/>
    <rect id="rect3726" rx="0" ry="0" height="16" width="32" stroke="#729fcf" stroke-linecap="round" y="-74.5" x="44.5" fill="url(#linearGradient3680)"/>
    <path id="path3728" opacity=".52490" d="m45-74h31v7c-16.342-3.067-26.417 1.721-31 7v-14z" fill="url(#radialGradient3672)"/>
    <path id="path3730" d="m44.5-63.438c8.111-2.277 19.968-2.682 32-3v7.938h-32v-4.938z" stroke="url(#linearGradient3703)" stroke-linecap="round" fill="url(#linearGradient3711)"/>
   </g>
   <path id="path3742" opacity=".2" d="m6.5 16.469l1.9688 18.937c0.1253 1.199 1.2494 1.962 2.3752 1.844l30.344-3.188 1.75-6.5c0.202-0.754-0.305-1.515-1.063-1.718l-34.844-9.313c-0.1787-0.048-0.3546-0.078-0.531-0.062z" fill="url(#linearGradient3489)"/>
   <g id="g3546" transform="matrix(.99458 -.10394 .10394 .99458 17.141 121.36)">
    <rect id="rect3548" stroke-linejoin="round" rx=".96564" ry=".86009" height="22" width="38" stroke="#888a85" stroke-linecap="round" y="-107.5" x="1.5" stroke-width="1.1" fill="url(#linearGradient3491)"/>
    <rect id="rect3550" stroke-linejoin="round" rx="0" ry="0" height="20" width="36" stroke="#fff" stroke-linecap="round" y="-106.5" x="2.5" fill="none"/>
    <g id="g3552">
     <rect id="rect3554" rx="0" ry="0" height="16" width="32" stroke="#f57900" stroke-linecap="round" y="-104.5" x="4.5" fill="url(#linearGradient3519)"/>
     <rect id="rect3556" height="8" width="8" y="-98" x="13" fill="url(#radialGradient3499)"/>
     <path id="path3558" d="m4.5-89c1.7655-1.895 2.7342-2.121 7.312-3.812 2.518 2.097 5.632 3.253 8.563 1.562 3.653-2.407 5.938 0.191 9.437-2.625 1.6 0.896 2.756 1.854 6.688 2.875v2.5h-32v-0.5z" fill-rule="evenodd" stroke="#000" stroke-width="1px"/>
     <path id="path3560" opacity=".75479" d="m5-104h31v7c-16.342-3.07-26.417 1.721-31 7v-14z" fill="url(#radialGradient3459)"/>
    </g>
   </g>
  </g>
  <rect id="rect1315" style="color:#000000" fill-rule="evenodd" height="16" width="16" display="none" y="-253.86" x="-203.45" fill="#d3d7cf"/>
  <rect id="rect3481" style="color:#000000" fill-rule="evenodd" height="22" width="22" display="none" y="-227.86" x="-203.45" fill="#d3d7cf"/>
  <path id="path3584" style="color:#000000" d="m18.75 9.375a9.375 9.375 0 1 1 -18.75 0 9.375 9.375 0 1 1 18.75 0z" fill-rule="evenodd" transform="matrix(1.7067 0 0 1.7067 -151.45 -198.86)" display="none" fill="url(#radialGradient5875)"/>
  <path id="path3586" style="color:#000000" d="m18.75 9.375a9.375 9.375 0 1 1 -18.75 0 9.375 9.375 0 1 1 18.75 0z" fill-rule="evenodd" transform="matrix(2.1333 0 0 2.1333 -155.45 -202.86)" display="none" fill="url(#radialGradient5875)"/>
  <path id="path3588" style="color:#000000" d="m18.75 9.375a9.375 9.375 0 1 1 -18.75 0 9.375 9.375 0 1 1 18.75 0z" fill-rule="evenodd" transform="matrix(2.56 0 0 2.56 -159.45 -206.86)" display="none" fill="url(#radialGradient5875)"/>
  <g id="g3977" fill-rule="evenodd" transform="translate(-339.45 -219.36)" display="none">
   <path id="path3954" style="color:#000000" d="m57 28.5a1.75 1 0 1 1 -3.5 0 1.75 1 0 1 1 3.5 0z" transform="matrix(1.1429 0 0 1.5 -11.143 -8.25)" display="inline"/>
   <rect id="rect3956" style="color:#000000" height="8.5" width="1" display="inline" y="26" x="53"/>
   <path id="path3964" d="m54 26c2 0 1.5 3 2.5 3-2 0-0.5-1.5-2.5-1.5v-1.5z"/>
  </g>
  <g id="g3997" fill-rule="evenodd" transform="translate(-339.45 -219.36)" display="none">
   <path id="path3984" style="color:#000000" d="m57 28.5a1.75 1 0 1 1 -3.5 0 1.75 1 0 1 1 3.5 0z" transform="matrix(1.1429 0 0 1.5 -2.6428 -8.25)" display="inline"/>
   <rect id="rect3986" style="color:#000000" height="8.5" width="1" display="inline" y="26" x="61.5"/>
   <path id="path3988" d="m62.5 26c2 0 1.5 2.5 2.5 2.5-1.5 0-0.5-1-2.5-1v-1.5z"/>
   <path id="path3995" d="m62.5 28c2 0 1.5 2.5 2.5 2.5-1.5 0-0.5-1-2.5-1v-1.5z" display="inline"/>
  </g>
  <g id="g4113" fill-rule="evenodd" transform="translate(-261.45 -253.86)" display="none">
   <path id="path4005" style="color:#000000" d="m57 28.5a1.75 1 0 1 1 -3.5 0 1.75 1 0 1 1 3.5 0z" transform="matrix(-1.1429 0 0 -1.5 56.143 104.75)" display="inline"/>
   <rect id="rect4007" style="color:#000000" transform="scale(-1)" height="8.5" width="1" display="inline" y="-70.5" x="8"/>
   <path id="path4009" d="m-8 70.5c2 0 1.5-3 2.5-3-2 0-0.5 1.5-2.5 1.5v1.5z" display="inline"/>
  </g>
  <g id="g4028" fill-rule="evenodd" transform="translate(-339.95 -219.36)" display="none">
   <path id="path4016" style="color:#000000" d="m57 28.5a1.75 1 0 1 1 -3.5 0 1.75 1 0 1 1 3.5 0z" transform="matrix(-1.1429 0 0 -1.5 142.64 70.25)" display="inline"/>
   <rect id="rect4018" style="color:#000000" transform="scale(-1)" height="8.5" width="1" display="inline" y="-36" x="-78.5"/>
   <path id="path4020" d="m78.5 36c2 0 1.5-2.5 2.5-2.5-1.5 0-0.5 1-2.5 1v1.5z"/>
   <path id="path4022" d="m78.5 34c2 0 1.5-2.5 2.5-2.5-1.5 0-0.5 1-2.5 1v1.5z" display="inline"/>
  </g>
  <g id="g4074" fill-rule="evenodd" transform="translate(-260.45 -254.86)" display="none">
   <path id="path4053" style="color:#000000" d="m57 28.5a1.75 1 0 1 1 -3.5 0 1.75 1 0 1 1 3.5 0z" transform="matrix(1.1429 0 0 1.5 -89.143 39.75)" display="inline"/>
   <path id="rect4055" style="color:#000000" d="m-25 74l6 1.5v8.5h-1v-7l-4-1v6.5h-1v-8.5z" display="inline"/>
   <path id="path4061" style="color:#000000" d="m57 28.5a1.75 1 0 1 1 -3.5 0 1.75 1 0 1 1 3.5 0z" transform="matrix(1.1429 0 0 1.5 -84.143 41.25)" display="inline"/>
  </g>
  <g id="g4090" fill-rule="evenodd" transform="translate(-261.95 -255.86)" display="none">
   <path id="path4081" style="color:#000000" d="m57 28.5a1.75 1 0 1 1 -3.5 0 1.75 1 0 1 1 3.5 0z" transform="matrix(1.1429 0 0 -1.5 -74.643 120.75)" display="inline"/>
   <path id="path4083" style="color:#000000" d="m-13.5 86.5l6-1.5v-8.5h-1v7l-4 1v-6.5h-1v8.5z" display="inline"/>
   <path id="path4085" style="color:#000000" d="m57 28.5a1.75 1 0 1 1 -3.5 0 1.75 1 0 1 1 3.5 0z" transform="matrix(1.1429 0 0 -1.5 -69.643 119.25)" display="inline"/>
  </g>
  <path id="path5560" style="color:#000000" d="m80 37a16 16 0 1 1 -32 0 16 16 0 1 1 32 0z" fill-rule="evenodd" transform="translate(-197.95 -174.85)" display="none" fill="#5c3566"/>
  <path id="path5562" style="color:#000000" d="m80 37a16 16 0 1 1 -32 0 16 16 0 1 1 32 0z" fill-rule="evenodd" transform="matrix(.7503 0 0 .7503 -181.97 -165.61)" display="none" fill="#75507b"/>
  <path id="path5564" style="color:#000000" d="m80 37a16 16 0 1 1 -32 0 16 16 0 1 1 32 0z" fill-rule="evenodd" transform="matrix(.49992 0 0 .49992 -165.94 -156.35)" display="none" fill="#ad7fa8"/>
  <g id="g4489" display="none" transform="translate(-261.45 -254.86)">
   <rect id="rect4451" height="12" stroke="#a40000" stroke-linecap="round" fill="url(#linearGradient5639)" style="color:#000000" fill-rule="evenodd" ry="1.0853" width="12" y="27.5" x="26.5" display="inline"/>
   <g id="g4467" fill-rule="evenodd" transform="translate(-2 -2)" fill="#fff">
    <rect id="rect4463" style="color:#000000" ry="0" transform="rotate(45)" width="9" display="inline" y="-.29289" x="44.998" height="2"/>
    <rect id="rect4465" style="color:#000000" ry="0" transform="matrix(-.70711 .70711 .70711 .70711 0 0)" width="9" display="inline" y="48.498" x="-3.7929" height="2"/>
   </g>
   <rect id="rect4479" stroke-linejoin="round" height="10" stroke="#ef2929" stroke-linecap="round" fill="none" style="color:#000000" ry="0" width="10" y="28.5" x="27.5" display="inline"/>
  </g>
  <rect id="rect4506" height="7" stroke="#a40000" stroke-linecap="round" fill="url(#linearGradient5654)" style="color:#000000" fill-rule="evenodd" ry="1.0853" width="7" y="-249.36" x="-194.95" display="none"/>
  <path id="path4510" d="m-193.95-247.36l1-1 4 4-1 1-4-4z" fill-rule="evenodd" display="none" fill="#fff"/>
  <path id="path4512" d="m-192.95-243.36l-1-1 4-4 1 1-4 4z" fill-rule="evenodd" display="none" fill="#fff"/>
  <g id="g5709" display="none" transform="translate(-261.45 -253.86)">
   <rect id="rect5674" height="9.0006" stroke="#a40000" stroke-linecap="round" fill="url(#linearGradient5643)" style="color:#000000" fill-rule="evenodd" ry=".99254" width="9.0006" y="32.5" x="70.499" display="inline"/>
   <rect id="rect5682" stroke-linejoin="round" height="7" stroke="#ef2929" stroke-linecap="round" fill="none" style="color:#000000" ry="0" width="7" y="33.5" x="71.5" display="inline"/>
   <g id="g5705" fill="#fff" fill-rule="evenodd">
    <path id="path5693" d="m72.5 35.5l1-1 4 4-1 1-4-4z" display="inline"/>
    <path id="path5695" d="m73.5 39.5l-1-1 4-4 1 1-4 4z" display="inline"/>
   </g>
  </g>
 </g>
 <g id="layer5" display="none">
  <g id="g3364" transform="matrix(.96593 -.25882 .25882 .96593 250.91 86.04)" stroke-linecap="round" display="inline">
   <rect id="rect3360" stroke-linejoin="round" rx=".96564" ry=".86009" height="22" width="38" stroke="#888a85" y="-77.5" x="1.5" fill="#eeeeec"/>
   <rect id="rect3362" rx="0" ry="0" height="16" width="32" stroke="#3465a4" y="-74.5" x="4.5" fill="#729fcf"/>
  </g>
  <g id="g3380" transform="matrix(.99450 -.10477 .10477 .99450 244.07 91.503)" stroke-linecap="round" display="inline">
   <rect id="rect3376" stroke-linejoin="round" rx=".96564" ry=".86009" height="22" width="38" stroke="#888a85" y="-77.5" x="1.5" fill="#eeeeec"/>
   <rect id="rect3378" rx="0" ry="0" height="16" width="32" stroke="#3465a4" y="-74.5" x="4.5" fill="#729fcf"/>
  </g>
  <g id="g3368" transform="matrix(.96593 .25882 -.25882 .96593 214.49 91.116)" stroke-linecap="round" display="inline">
   <rect id="rect3370" stroke-linejoin="round" rx=".96564" ry=".86009" height="22" width="38" stroke="#888a85" y="-77.5" x="1.5" fill="#eeeeec"/>
   <rect id="rect3372" rx="0" ry="0" height="16" width="32" stroke="#3465a4" y="-74.5" x="4.5" fill="#729fcf"/>
  </g>
  <g id="g3538" display="inline" transform="translate(0,-70)">
   <rect id="rect3346" stroke-linejoin="round" rx=".96564" ry=".86009" height="22" width="38" stroke="#888a85" stroke-linecap="round" y="-77.5" x="1.5" fill="#eeeeec"/>
   <rect id="rect3427" stroke-linejoin="round" rx="0" ry="0" height="20" width="36" stroke="#fff" stroke-linecap="round" y="-76.5" x="2.5" fill="none"/>
   <g id="g3442">
    <rect id="rect3358" rx="0" ry="0" height="16" width="32" stroke="#729fcf" stroke-linecap="round" y="-74.5" x="4.5" fill="url(#linearGradient3455)"/>
    <path id="path3387" d="m5-58.5c1.4375-7.5 3.9477-4.799 6.188-11.188 1.313 0.772 1.799 0.268 2.812 1.126 1.009 1.252 1.472 3.231 2 5.124 2.903-4.562 3.561 1.438 7.188 2.376 3.812-1.411 4.312-9.938 6.312-8.938 0.818-0.762 1.564-5.578 2.5-2 1 4 3.664 8.257 4.5 12v1.5h-31.5z" fill-rule="evenodd" stroke="url(#linearGradient3395)" stroke-width="1px" fill="url(#linearGradient3415)"/>
    <path id="rect3429" opacity=".52490" d="m5-74h31v7c-16.342-3.067-26.417 1.721-31 7v-14z" fill="url(#radialGradient3440)"/>
   </g>
  </g>
  <g id="g3529" display="inline" transform="translate(0,-70)">
   <rect id="rect3447" stroke-linejoin="round" rx=".96564" ry=".86009" height="22" width="38" stroke="#888a85" stroke-linecap="round" y="-107.5" x="1.5" fill="#eeeeec"/>
   <rect id="rect3449" stroke-linejoin="round" rx="0" ry="0" height="20" width="36" stroke="#fff" stroke-linecap="round" y="-106.5" x="2.5" fill="none"/>
   <g id="g3523">
    <rect id="rect3451" rx="0" ry="0" height="16" width="32" stroke="#f57900" stroke-linecap="round" y="-104.5" x="4.5" fill="url(#linearGradient3519)"/>
    <rect id="rect3483" height="8" width="8" y="-98" x="13" fill="url(#radialGradient3499)"/>
    <path id="path3521" d="m4.5-89c1.7655-1.895 2.7342-2.121 7.312-3.812 2.518 2.097 5.632 3.253 8.563 1.562 3.653-2.407 5.938 0.191 9.437-2.625 1.6 0.896 2.756 1.854 6.688 2.875v2.5h-32v-0.5z" fill-rule="evenodd" stroke="#000" stroke-width="1px"/>
    <path id="path3457" opacity=".75479" d="m5-104h31v7c-16.342-3.07-26.417 1.721-31 7v-14z" fill="url(#radialGradient3459)"/>
   </g>
  </g>
  <g id="g3713" display="inline" transform="translate(0,-70)">
   <rect id="rect3637" stroke-linejoin="round" rx=".96564" ry=".86009" height="22" width="38" stroke="#888a85" stroke-linecap="round" y="-77.5" x="41.5" fill="#eeeeec"/>
   <rect id="rect3639" stroke-linejoin="round" rx="0" ry="0" height="20" width="36" stroke="#fff" stroke-linecap="round" y="-76.5" x="42.5" fill="none"/>
   <rect id="rect3643" rx="0" ry="0" height="16" width="32" stroke="#729fcf" stroke-linecap="round" y="-74.5" x="44.5" fill="url(#linearGradient3680)"/>
   <path id="path3647" opacity=".52490" d="m45-74h31v7c-16.342-3.067-26.417 1.721-31 7v-14z" fill="url(#radialGradient3672)"/>
   <path id="rect3682" d="m44.5-63.438c8.111-2.277 19.968-2.682 32-3v7.938h-32v-4.938z" stroke="url(#linearGradient3703)" stroke-linecap="round" fill="url(#linearGradient3711)"/>
  </g>
  <path id="path3579" d="m19.688 8c-1.447 0.0068-2.653 1.0395-3.094 2.281l-1 2.719h-6.0628c-3.0277 0-5.5312 2.503-5.5312 5.531v14.938c0 3.028 2.5035 5.531 5.5312 5.531h28.938c3.028 0 5.531-2.503 5.531-5.531v-14.938c0-3.028-2.503-5.531-5.531-5.531h-6.094l-0.969-2.719c-0.463-1.3031-1.679-2.2742-3.125-2.281h-8.593z" transform="translate(0,-90)" display="inline"/>
  <path id="path3577" d="m19.688 9c-0.996 0.0047-1.836 0.69-2.157 1.594l-1.219 3.406h-6.7808c-2.4912 0-4.5312 2.04-4.5312 4.531v14.938c0 2.491 2.04 4.531 4.5312 4.531h28.938c2.491 0 4.531-2.04 4.531-4.531v-14.938c0-2.491-2.04-4.531-4.531-4.531h-6.781l-1.219-3.406c-0.332-0.9349-1.192-1.5893-2.188-1.594h-8.593z" transform="translate(0,-90)" display="inline" fill="#fff"/>
  <path id="path3514" d="m19.188 12.5c-0.607 0.003-1.151 0.374-1.376 0.938l-3.187 8c-0.193 0.459-0.143 0.985 0.133 1.4 0.277 0.415 0.743 0.664 1.242 0.662h16c0.499 0.002 0.965-0.247 1.242-0.662 0.276-0.415 0.326-0.941 0.133-1.4l-3.187-8c-0.225-0.564-0.769-0.935-1.376-0.938h-9.624z" transform="matrix(.89464 0 0 1 2.5199 -92.5)" display="inline"/>
  <rect id="rect2528" rx="3.5227" ry="3.5227" height="22" width="36" display="inline" y="-75" x="6"/>
  <path id="path3499" d="m28 25.75a5.5 4.75 0 1 1 -11 0 5.5 4.75 0 1 1 11 0z" transform="matrix(1.2727 0 0 1.4737 -4.6364 -101.95)" display="inline" fill="#fff"/>
  <path id="path3501" d="m28 25.75a5.5 4.75 0 1 1 -11 0 5.5 4.75 0 1 1 11 0z" transform="matrix(.90909 0 0 1.0526 3.5454 -91.105)" display="inline"/>
  <rect id="rect3506" rx="1.0852" ry="1.0852" height="3" width="4" display="inline" y="-78" x="23" fill="#fff"/>
  <path id="path3508" d="m21 16a1 1 0 1 1 -2 0 1 1 0 1 1 2 0z" transform="translate(1,-92)" display="inline" fill="#fff"/>
  <path id="path3516" d="m21 16a1 1 0 1 1 -2 0 1 1 0 1 1 2 0z" transform="matrix(-3,0,0,-3,84,-16)" display="inline" fill="#fff"/>
  <path id="path3523" d="m21 16a1 1 0 1 1 -2 0 1 1 0 1 1 2 0z" transform="matrix(-3,0,0,-3,85,-15)" display="inline"/>
  <g id="g3544" display="inline" transform="translate(0,-90)">
   <path id="path3551" d="m28 25.75a5.5 4.75 0 1 1 -11 0 5.5 4.75 0 1 1 11 0z" transform="matrix(1.2727 0 0 1.4737 -4.6364 -11.947)" fill="#fff"/>
   <path id="path3553" d="m28 25.75a5.5 4.75 0 1 1 -11 0 5.5 4.75 0 1 1 11 0z" transform="matrix(.90909 0 0 1.0526 3.5454 -1.1053)"/>
   <rect id="rect3555" rx="1.0852" ry="1.0852" height="3" width="4" y="12" x="23" fill="#fff"/>
   <path id="path3557" d="m21 16a1 1 0 1 1 -2 0 1 1 0 1 1 2 0z" transform="translate(1,-2)" fill="#fff"/>
   <path id="path3559" d="m21 16a1 1 0 1 1 -2 0 1 1 0 1 1 2 0z" transform="matrix(-3,0,0,-3,84,74)" fill="#fff"/>
   <path id="path3561" d="m21 16a1 1 0 1 1 -2 0 1 1 0 1 1 2 0z" transform="matrix(-3,0,0,-3,85,75)"/>
  </g>
  <path id="path3587" d="m19.688 8c-1.447 0.0068-2.653 1.0395-3.094 2.281l-1 2.719h-6.0628c-3.0277 0-5.5312 2.503-5.5312 5.531v14.938c0 3.028 2.5035 5.531 5.5312 5.531h28.938c3.028 0 5.531-2.503 5.531-5.531v-14.938c0-3.028-2.503-5.531-5.531-5.531h-6.094l-0.969-2.719c-0.463-1.3031-1.679-2.2742-3.125-2.281h-8.593z" transform="translate(50,-90)" display="inline"/>
  <path id="path3589" d="m19.688 9c-0.996 0.0047-1.836 0.69-2.157 1.594l-1.219 3.406h-6.7808c-2.4912 0-4.5312 2.04-4.5312 4.531v14.938c0 2.491 2.04 4.531 4.5312 4.531h28.938c2.491 0 4.531-2.04 4.531-4.531v-14.938c0-2.491-2.04-4.531-4.531-4.531h-6.781l-1.219-3.406c-0.332-0.9349-1.192-1.5893-2.188-1.594h-8.593z" transform="translate(50,-90)" display="inline" fill="#fff"/>
  <path id="path3592" d="m69.688-80c-0.543 0.003-1.019 0.374-1.219 0.938l-1.469 4.062h-7.469c-1.951 0-3.531 1.58-3.531 3.531v14.938c0 1.951 1.58 3.531 3.531 3.531h28.938c1.951 0 3.531-1.58 3.531-3.531v-14.938c0-1.951-1.58-3.531-3.531-3.531h-7.5l-1.438-4.062c-0.2-0.564-0.707-0.935-1.25-0.938h-8.593z" display="inline"/>
  <path id="path3635" d="m69.688 8.5c-1.223 0.0058-2.244 0.8638-2.626 1.938l-1.093 3.062h-6.438c-2.761 0-5.031 2.27-5.031 5.031v14.938c0 2.761 2.27 5.031 5.031 5.031h28.938c2.761 0 5.031-2.27 5.031-5.031v-14.938c0-2.761-2.27-5.031-5.031-5.031h-6.438l-1.093-3.062c-0.399-1.1206-1.435-1.9322-2.657-1.938h-8.593z" display="inline" transform="translate(50,-90)" stroke="#555753" stroke-linecap="round" fill="url(#radialGradient3538)"/>
  <path id="path3596" d="m124.09-78c-0.6 0-1.09 0.493-1.09 1.094v0.812c0 0.601 0.49 1.094 1.09 1.094h1.82c0.6 0 1.09-0.493 1.09-1.094v-0.812c0-0.601-0.49-1.094-1.09-1.094h-1.82zm-3.09 1c-0.55 0-1 0.448-1 1s0.45 1 1 1 1-0.448 1-1-0.45-1-1-1z" display="inline"/>
  <path id="path3637" opacity=".58621" d="m69.688 9.5c-0.772 0.0036-1.426 0.546-1.688 1.281l-1.344 3.719h-7.125c-2.224 0-4.031 1.807-4.031 4.031v14.938c0 2.224 1.807 4.031 4.031 4.031h28.938c2.224 0 4.031-1.807 4.031-4.031v-14.938c0-2.224-1.807-4.031-4.031-4.031h-7.157l-1.312-3.719c-0.267-0.751-0.947-1.2774-1.719-1.281h-8.593z" display="inline" transform="translate(50,-90)" stroke="url(#linearGradient3550)" stroke-linecap="round" fill="none"/>
  <path id="path3530" d="m124-70c-3.86 0-7 3.136-7 7s3.14 7 7 7 7-3.136 7-7-3.14-7-7-7zm0 2c2.76 0 5 2.24 5 5s-2.24 5-5 5-5-2.24-5-5 2.24-5 5-5zm0 2c-1.66 0-3 1.344-3 3 0 1.084 0.57 2.035 1.44 2.562-0.28-0.454-0.44-0.99-0.44-1.562 0-1.656 1.34-3 3-3 0.57 0 1.11 0.16 1.56 0.438-0.52-0.863-1.48-1.438-2.56-1.438z" display="inline"/>
  <g id="g3781" display="inline">
   <path id="path3732" stroke-linejoin="round" d="m90.758 6.041l-5.741 3.1603v22.913l5.741 4.345 14.802-1.975v-26.863l-14.802-1.58z" display="inline" stroke="#c17d11" stroke-linecap="round" fill="#f0cf9c"/>
   <path id="path3734" d="m91.153 6.4854v29.53l14.007-1.877v-26.146l-14.007-1.5066z" display="inline" fill="#e9b96e"/>
   <path id="path3771" opacity=".48659" stroke-linejoin="round" d="m29.906 7l-4.937 2.7188v21.937l5.031 3.813 13.625-1.813v-25.187l-13.719-1.469z" display="inline" transform="translate(61)" stroke="url(#linearGradient3779)" stroke-linecap="round" fill="none"/>
   <g id="g3764" stroke-linejoin="round" transform="matrix(.83977 0 0 1 66.798 2)" stroke="#888a85" stroke-linecap="round" fill="#babdb6">
    <path id="path3736" d="m42 30a8 8 0 1 1 -16 0 8 8 0 1 1 16 0z" display="inline" transform="matrix(.71601 0 0 .74070 13.512 3.1522)" stroke-width="1.4984"/>
    <path id="path3738" d="m42 30a8 8 0 1 1 -16 0 8 8 0 1 1 16 0z" display="inline" transform="matrix(.29628 0 0 .29628 27.585 6.6088)" stroke-width="3.6831"/>
    <path id="path3740" d="m42 30a8 8 0 1 1 -16 0 8 8 0 1 1 16 0z" display="inline" transform="matrix(.29628 0 0 .29628 27.585 .28814)" stroke-width="3.6831"/>
   </g>
  </g>
  <path id="path3701" stroke-linejoin="round" d="m132 3l20 2v34l-20 3v-39z" display="inline" stroke="#555753" stroke-linecap="round" fill="#888a85"/>
  <path id="path3703" stroke-linejoin="round" d="m126.34 7l5.66-4v39l-5.66-6v-29z" display="inline" stroke="#555753" stroke-linecap="round" fill="#888a85"/>
  <path id="path3716" stroke-linejoin="round" d="m42 30a8 8 0 1 1 -16 0 8 8 0 1 1 16 0z" display="inline" transform="matrix(-.1875 0 0 .1875 27.875 -36.625)" stroke="#888a85" stroke-linecap="round" stroke-width="5.3333" fill="#e9b96e"/>
  <path id="path3826" stroke-linejoin="round" d="m42 30a8 8 0 1 1 -16 0 8 8 0 1 1 16 0z" display="inline" transform="matrix(-0.5 0 0 0.5 38.5 -38.5)" stroke="url(#radialGradient4854)" stroke-linecap="round" stroke-width="2" fill="url(#radialGradient3830)"/>
  <path id="path3828" d="m42 30a8 8 0 1 1 -16 0 8 8 0 1 1 16 0z" transform="matrix(-.1875 0 0 .1875 28.375 -29.125)" display="inline" fill="url(#radialGradient3832)"/>
  <path id="path4838" opacity=".42912" stroke-linejoin="round" d="m42 30a8 8 0 1 1 -16 0 8 8 0 1 1 16 0z" display="inline" transform="matrix(-0.375 0 0 0.375 34.25 -34.75)" stroke="url(#linearGradient4846)" stroke-linecap="round" stroke-width="2.6667" fill="none"/>
  <path id="path4429" d="m-227.95-141.36c8.5 7.5 5 0.5 8 0.5 6.5 0-2.5 4.5 6.5 4.5" display="inline" stroke="url(#linearGradient5868)" stroke-width="1.1" fill="none"/>
  <path id="path3945" opacity=".45570" style="color:#000000" d="m26.5 38.7a13.75 3.8 0 1 1 -27.5 0 13.75 3.8 0 1 1 27.5 0z" transform="matrix(1.1636 0 0 1.0526 -252.29 -258.59)" display="inline" fill="url(#radialGradient5783)"/>
  <path id="rect3521" style="color:#000000" d="m-249.45-247.36l-1.5 4.5v26.5h27v-26.5l-1.5-4.5h-24z" fill-rule="evenodd" display="inline" stroke="#c17d11" stroke-linecap="round" fill="url(#radialGradient5864)"/>
  <rect id="rect3773" style="color:#000000" fill-rule="evenodd" height="26" width="26" display="inline" y="-242.86" x="-250.45" fill="url(#linearGradient5861)"/>
  <path id="path3726" style="color:#000000" d="m-237.7-239.86c-1.94 0.05-3.74 0.69-5.25 1.69-0.37-0.42-0.9-0.69-1.5-0.69h-0.13-0.09c-1.01 0.1-1.78 0.97-1.78 2 0 0.61 0.26 1.14 0.68 1.5-1.04 1.58-1.68 3.46-1.68 5.5s0.61 3.92 1.65 5.5c-0.41 0.37-0.65 0.9-0.65 1.5 0 1.11 0.89 2 2 2 0.6 0 1.13-0.26 1.5-0.69 1.58 1.05 3.46 1.69 5.5 1.69 2.03 0 3.92-0.64 5.5-1.69 0.36 0.43 0.89 0.69 1.5 0.69 1.1 0 2-0.89 2-2 0-0.6-0.27-1.13-0.69-1.5 1.05-1.58 1.69-3.46 1.69-5.5s-0.64-3.92-1.69-5.5c0.42-0.36 0.69-0.89 0.69-1.5 0-1.1-0.9-2-2-2h-0.13-0.09c-0.51 0.05-0.96 0.3-1.28 0.66-0.01-0.01-0.03 0-0.03 0-1.58-1.04-3.45-1.66-5.47-1.66h-0.25z" fill-rule="evenodd" display="inline" stroke="url(#linearGradient5858)" stroke-linecap="round" stroke-width="1.9" fill="url(#radialGradient5856)"/>
  <path id="path3507" style="color:#000000" d="m-237.7-239.86c-1.94 0.05-3.74 0.69-5.25 1.69-0.37-0.42-0.9-0.69-1.5-0.69h-0.13-0.09c-1.01 0.1-1.78 0.97-1.78 2 0 0.61 0.26 1.14 0.68 1.5-1.04 1.58-1.68 3.46-1.68 5.5s0.61 3.92 1.65 5.5c-0.41 0.37-0.65 0.9-0.65 1.5 0 1.11 0.89 2 2 2 0.6 0 1.13-0.26 1.5-0.69 1.58 1.05 3.46 1.69 5.5 1.69 2.03 0 3.92-0.64 5.5-1.69 0.36 0.43 0.89 0.69 1.5 0.69 1.1 0 2-0.89 2-2 0-0.6-0.27-1.13-0.69-1.5 1.05-1.58 1.69-3.46 1.69-5.5s-0.64-3.92-1.69-5.5c0.42-0.36 0.69-0.89 0.69-1.5 0-1.1-0.9-2-2-2h-0.13-0.09c-0.51 0.05-0.96 0.3-1.28 0.66-0.01-0.01-0.03 0-0.03 0-1.58-1.04-3.45-1.66-5.47-1.66h-0.25z" fill-rule="evenodd" display="inline" fill="url(#radialGradient5853)"/>
  <path id="path3636" style="color:#000000" d="m18.75 9.375a9.375 9.375 0 1 1 -18.75 0 9.375 9.375 0 1 1 18.75 0z" fill-rule="evenodd" stroke-linecap="round" transform="matrix(.91142 0 0 .91142 -245.99 -238.41)" stroke="url(#linearGradient5797)" display="inline" stroke-width="1.0398" fill="url(#radialGradient5795)"/>
  <path id="path3519" style="color:#000000" d="m18.75 9.375a9.375 9.375 0 1 1 -18.75 0 9.375 9.375 0 1 1 18.75 0z" fill-rule="evenodd" transform="matrix(.32 0 0 .32 -240.45 -232.86)" display="inline" fill="url(#radialGradient5799)"/>
  <path id="path3720" style="color:#000000" d="m17 16.5a0.5 0.5 0 1 1 -1 0 0.5 0.5 0 1 1 1 0z" fill-rule="evenodd" transform="translate(-246.45 -253.86)" display="inline" fill="#2e3436"/>
  <path id="path5383" style="color:#000000" d="m17 16.5a0.5 0.5 0 1 1 -1 0 0.5 0.5 0 1 1 1 0z" fill-rule="evenodd" transform="translate(-246.45 -158.86)" display="inline" fill="#2e3436"/>
  <path id="path3812" style="color:#000000" d="m-249.11-246.86l-1.34 4v0.06 25.94h26v-25.94-0.06l-1.35-4h-23.31zm0.75 1h21.81l1.1 3.28v24.72h-24v-24.72l1.09-3.28z" fill-rule="evenodd" display="inline" fill="#f5dfbd"/>
  <path id="path3792" stroke-linejoin="round" d="m-249.95-242.36h24.96v0 0" display="inline" stroke="url(#linearGradient5843)" stroke-linecap="round" fill="none"/>
  <path id="path4415" style="color:#000000" d="m14 13.5a0.5 0.5 0 1 1 -1 0 0.5 0.5 0 1 1 1 0z" fill-rule="evenodd" transform="translate(-240.45 -253.86)" display="inline" fill="#2e3436"/>
  <path id="path3515" style="color:#000000" d="m-238.23-253.86c-4.91 0.16-9.42 1.8-13.16 4.47l13.94 19.53 21.22-11.25c-4.04-7.59-12.03-12.75-21.22-12.75-0.26 0-0.53-0.01-0.78 0zm0.78 24l10.4 21.63h0.03c8.03-3.89 13.57-12.12 13.57-21.63 0-3.24-0.65-6.33-1.82-9.15l-22.18 9.15zl-16.53 17.41c4.3 4.09 10.12 6.59 16.53 6.59 2.36 0 4.65-0.33 6.81-0.97l-6.81-23.03zl-18.44-15.37c-3.48 4.16-5.56 9.52-5.56 15.37 0 6 2.2 11.48 5.84 15.69l18.16-15.69z" fill-rule="evenodd" display="inline" fill="url(#radialGradient5770)"/>
  <g id="g4352" fill-rule="evenodd" transform="translate(-261.45 -253.86)" stroke="url(#linearGradient5726)" stroke-linecap="round" stroke-width="0.5" display="inline" fill="#888a85">
   <path id="path4326" opacity=".52510" d="m14.5 37.5l9.5-13.5"/>
   <path id="path4328" opacity=".52510" d="m3.5 35.5l20.5-11.5" display="inline"/>
   <path id="path4330" opacity=".52510" d="m13 34l11-10" display="inline"/>
  </g>
  <g id="g4404" fill-rule="evenodd" transform="translate(-261.45 -253.86)" stroke="url(#linearGradient5734)" stroke-linecap="round" stroke-width="0.5" display="inline" fill="#888a85">
   <path id="path4369" opacity=".52510" d="m40 13l-16 11"/>
   <path id="path4371" opacity=".52510" d="m44 22l-20 2" display="inline"/>
   <path id="path4373" opacity=".52510" d="m42 17.5l-18 6.5" display="inline"/>
  </g>
  <path id="path3513" style="color:#000000" d="m-238.23-249.86c-4.04 0.16-7.77 1.52-10.85 3.72l11.63 16.28 17.68-9.37c-3.36-6.33-10.03-10.63-17.68-10.63-0.26 0-0.53-0.01-0.78 0zm0.78 20l8.68 18c6.69-3.24 11.32-10.08 11.32-18 0-2.7-0.53-5.27-1.5-7.62l-18.5 7.62zl-13.78 14.5c3.58 3.41 8.44 5.5 13.78 5.5 1.97 0 3.88-0.28 5.68-0.81l-5.68-19.19zl-15.35-12.81c-2.9 3.47-4.65 7.94-4.65 12.81 0 5 1.83 9.59 4.87 13.1l15.13-13.1z" fill-rule="evenodd" display="inline" fill="url(#radialGradient5721)"/>
  <g id="g4308" opacity=".52510" fill-rule="evenodd" transform="matrix(-.96593 .25882 -.25882 -.96593 -207.94 -212.34)" stroke="url(#linearGradient5664)" stroke-linecap="round" stroke-width=".5" display="inline" fill="#888a85">
   <path id="path4310" d="m39.585 33.921l-15.61-9.359"/>
   <path id="path4312" d="m27.398 44.632l-3.423-20.07" display="inline"/>
   <path id="path4314" d="m32.72 38.293l-8.745-13.731" display="inline"/>
  </g>
  <path id="path3511" style="color:#000000" d="m-238.08-245.86c-3.24 0.13-6.22 1.23-8.69 3l9.32 13 14.15-7.5c-2.68-5.06-8.03-8.5-14.15-8.5-0.21 0-0.42-0.01-0.63 0zm0.63 16l6.93 14.41c5.37-2.59 9.07-8.06 9.07-14.41 0-2.16-0.44-4.21-1.22-6.09l-14.78 6.09zl-11.03 11.6c2.87 2.73 6.75 4.4 11.03 4.4 1.57 0 3.09-0.23 4.53-0.65l-4.53-15.35zl-12.28-10.25c-2.32 2.78-3.72 6.35-3.72 10.25 0 4 1.47 7.66 3.9 10.47l12.1-10.47z" fill-rule="evenodd" display="inline" fill="url(#radialGradient5688)"/>
  <g id="g4166" opacity=".52510" fill-rule="evenodd" transform="translate(-261.45 -253.86)" stroke="url(#linearGradient5664)" stroke-linecap="round" stroke-width=".5" display="inline" fill="#888a85">
   <path id="path4160" d="m36 35.5l-12-11.5"/>
   <path id="path4162" d="m25.5 40.5l-1.5-16.5" display="inline"/>
   <path id="path4164" d="m29.5 36.5l-5.5-12.5" display="inline"/>
  </g>
 </g>
</svg>
