<?xml version="1.0" encoding="UTF-8" standalone="no"?>
<!-- Created with Inkscape (http://www.inkscape.org/) -->
<svg id="svg1307" xmlns:rdf="http://www.w3.org/1999/02/22-rdf-syntax-ns#" xmlns="http://www.w3.org/2000/svg" height="128" width="128" version="1.0" xmlns:xlink="http://www.w3.org/1999/xlink" xmlns:cc="http://creativecommons.org/ns#" xmlns:dc="http://purl.org/dc/elements/1.1/">
 <metadata>
  <rdf:RDF xmlns:rdf="http://www.w3.org/1999/02/22-rdf-syntax-ns#" xmlns:cc="http://web.resource.org/cc/" xmlns:dc="http://purl.org/dc/elements/1.1/">
   <cc:Work rdf:about="">
    <dc:title>Oxygen team</dc:title>
    <dc:description/>
    <dc:subject>
     <rdf:Bag>
      <rdf:li>unsorted</rdf:li>
     </rdf:Bag>
    </dc:subject>
    <dc:publisher>
     <cc:Agent rdf:about="http://www.openclipart.org/">
      <dc:title>Open Clip Art Library, Source: Oxygen Icons, Source: Oxygen Icons, Source: Oxygen Icons, Source: Oxygen Icons</dc:title>
     </cc:Agent>
    </dc:publisher>
    <dc:creator>
     <cc:Agent>
      <dc:title/>
     </cc:Agent>
    </dc:creator>
    <dc:rights>
     <cc:Agent>
      <dc:title/>
     </cc:Agent>
    </dc:rights>
    <dc:date/>
    <dc:format>image/svg+xml</dc:format>
    <dc:type rdf:resource="http://purl.org/dc/dcmitype/StillImage"/>
    <cc:license rdf:resource="http://creativecommons.org/licenses/by-sa/3.0/ or http://creativecommons.org/licenses/LGPL/2.1/"/>
    <dc:language>en</dc:language>
   </cc:Work>
  </rdf:RDF>
 </metadata>
 <defs id="defs1309">
  <linearGradient id="linearGradient3877">
   <stop id="stop3879" offset="0"/>
   <stop id="stop3943" stop-opacity=".49458" offset=".25824"/>
   <stop id="stop3881" stop-opacity="0" offset="1"/>
  </linearGradient>
  <linearGradient id="linearGradient2783">
   <stop id="stop2785" stop-color="#323232" offset="0"/>
   <stop id="stop2787" stop-color="#dfe1e1" offset=".076923"/>
   <stop id="stop2799" stop-color="#b6b1b1" offset=".26289"/>
   <stop id="stop3392" stop-color="#a19999" offset=".38145"/>
   <stop id="stop2789" stop-color="#645b5b" offset=".5"/>
   <stop id="stop2791" stop-color="#fff" offset=".78202"/>
   <stop id="stop2793" stop-color="#dfd9df" offset=".90059"/>
   <stop id="stop2795" stop-color="#3a3a3a" offset="1"/>
  </linearGradient>
  <linearGradient id="linearGradient4792" y2="-19.841" gradientUnits="userSpaceOnUse" y1="130.18" gradientTransform="matrix(.99352 0 0 .99352 .0028055 13.479)" x2="35.684" x1="64.57">
   <stop id="stop4788" offset="0"/>
   <stop id="stop4790" stop-opacity="0" offset="1"/>
  </linearGradient>
  <linearGradient id="linearGradient4796" y2="265.21" gradientUnits="userSpaceOnUse" y1="262" gradientTransform="matrix(-.67992 .26044 .22285 .58177 -91.481 -31.733)" x2="-102.01" x1="-114">
   <stop id="stop2596" stop-color="#fafafa" offset="0"/>
   <stop id="stop2598" stop-color="#fafafa" stop-opacity="0" offset="1"/>
  </linearGradient>
  <linearGradient id="linearGradient4799" y2="277.26" xlink:href="#linearGradient3877" gradientUnits="userSpaceOnUse" y1="286.38" gradientTransform="matrix(-.53295 -.37361 -.47740 .51644 105.07 -85.266)" x2="-133.02" x1="-128.78"/>
  <linearGradient id="linearGradient4802" y2="276.74" xlink:href="#linearGradient3877" gradientUnits="userSpaceOnUse" y1="274.45" gradientTransform="matrix(-.53295 -.37361 -.47740 .51644 105.08 -85.281)" x2="-123.91" x1="-119.94"/>
  <linearGradient id="linearGradient4805" y2="274.51" xlink:href="#linearGradient3877" gradientUnits="userSpaceOnUse" y1="273.13" gradientTransform="matrix(.14697 -.63405 .70025 .065340 -133.1 5.9161)" x2="-134.64" x1="-135.91"/>
  <linearGradient id="linearGradient4808" y2="273.3" xlink:href="#linearGradient3877" gradientUnits="userSpaceOnUse" y1="321.44" gradientTransform="matrix(-.53295 -.37361 -.47740 .51644 104.95 -85.239)" x2="-120.47" x1="-203.84"/>
  <linearGradient id="linearGradient4811" y2="161.92" xlink:href="#linearGradient2783" gradientUnits="userSpaceOnUse" y1="167.37" gradientTransform="matrix(.25769 -.10062 -.083455 -.22372 91.798 131.48)" x2="-118.9" x1="-162.56"/>
  <linearGradient id="linearGradient4824" y2="-5.3516" gradientUnits="userSpaceOnUse" y1="-5.3516" gradientTransform="matrix(.72130 6.6307e-17 -1.0841e-16 .84298 6.1605 -1.2365)" x2="27.946" x1="22.229">
   <stop id="stop2809" stop-color="#e2dcdc" offset="0"/>
   <stop id="stop2811" stop-color="#fff" offset=".39074"/>
   <stop id="stop2813" stop-color="#dfd9df" offset=".82692"/>
   <stop id="stop2815" stop-color="#c3c3c3" offset="1"/>
  </linearGradient>
  <linearGradient id="linearGradient4827" y2="224.42" gradientUnits="userSpaceOnUse" y1="128.93" gradientTransform="matrix(1.0706 -7.4684e-16 3.5067e-15 .72293 47.26 -88.363)" x2="-56.4" x1="-71.805">
   <stop id="stop2839" offset="0"/>
   <stop id="stop2841" stop-opacity="0" offset="1"/>
  </linearGradient>
  <linearGradient id="linearGradient4830" y2="155.6" gradientUnits="userSpaceOnUse" y1="185.69" gradientTransform="matrix(.72809 -5.1711e-17 8.0771e-17 0.623 -126.41 -26.858)" x2="166.33" x1="98.411">
   <stop id="stop3971" offset="0"/>
   <stop id="stop3973" stop-opacity="0" offset="1"/>
  </linearGradient>
  <linearGradient id="linearGradient4833" y2="146.01" gradientUnits="userSpaceOnUse" y1="145.54" gradientTransform="matrix(.72809 -5.1711e-17 8.0771e-17 0.623 33.865 -73.747)" x2="-53.739" x1="-53.739">
   <stop id="stop3739" offset="0"/>
   <stop id="stop3741" stop-opacity="0" offset="1"/>
  </linearGradient>
  <linearGradient id="linearGradient4836" y2="137" gradientUnits="userSpaceOnUse" y1="132.86" gradientTransform="matrix(.72809 -5.1711e-17 8.0771e-17 0.623 33.865 -73.747)" x2="-45.04" x1="-44.999">
   <stop id="stop3727" offset="0"/>
   <stop id="stop3729" stop-opacity="0" offset="1"/>
  </linearGradient>
  <linearGradient id="linearGradient4839" y2="142.56" gradientUnits="userSpaceOnUse" y1="154.81" gradientTransform="matrix(.72809 -5.1711e-17 8.0771e-17 0.623 33.865 -73.747)" x2="-44.212" x1="-40.932">
   <stop id="stop2818" offset="0"/>
   <stop id="stop2820" stop-opacity="0" offset="1"/>
  </linearGradient>
  <linearGradient id="linearGradient4842" y2="90.227" xlink:href="#linearGradient2783" gradientUnits="userSpaceOnUse" y1="90.227" gradientTransform="matrix(.72809 -5.1711e-17 8.0771e-17 0.623 -143.62 9.9633)" x2="208.72" x1="190.03"/>
  <linearGradient id="linearGradient4845" y2="212.12" gradientUnits="userSpaceOnUse" y1="282.73" gradientTransform="matrix(.72809 -5.1711e-17 8.0771e-17 0.623 -126.41 -42.067)" x2="183.4" x1="254.01">
   <stop id="stop2586" offset="0"/>
   <stop id="stop2588" stop-opacity="0" offset="1"/>
  </linearGradient>
  <linearGradient id="linearGradient4848" y2="90.227" xlink:href="#linearGradient2783" gradientUnits="userSpaceOnUse" y1="90.227" gradientTransform="matrix(.60739 -1.7301e-16 1.0196e-16 .24180 -119.61 8.0189)" x2="207.95" x1="190.03"/>
  <linearGradient id="linearGradient4851" y2="90.227" xlink:href="#linearGradient2783" gradientUnits="userSpaceOnUse" y1="90.227" gradientTransform="matrix(.66455 -1.8929e-16 1.1156e-16 .26455 -131.07 66.212)" x2="207.95" x1="190.03"/>
  <linearGradient id="linearGradient4853" y2="90.227" xlink:href="#linearGradient2783" gradientUnits="userSpaceOnUse" y1="90.227" gradientTransform="matrix(.91272 1.0106e-15 -5.173e-16 .42464 -6.4033 173.8)" x2="208.77" x1="190.03"/>
  <linearGradient id="linearGradient4855" y2="160.49" xlink:href="#linearGradient2783" gradientUnits="userSpaceOnUse" y1="164.39" gradientTransform="matrix(.19246 .32760 .33334 -.18914 -161.42 355.03)" x2="-115.94" x1="-161.95"/>
  <linearGradient id="linearGradient4857" y2="274.51" xlink:href="#linearGradient3877" gradientUnits="userSpaceOnUse" y1="273.13" x2="-134.64" x1="-135.91"/>
  <linearGradient id="linearGradient4859" y2="280.78" xlink:href="#linearGradient3877" gradientUnits="userSpaceOnUse" y1="289.61" gradientTransform="matrix(.5 -.86602 -.86602 -.5 175.13 303.27)" x2="-129.63" x1="-128.98"/>
  <linearGradient id="linearGradient4861" y2="290.11" gradientUnits="userSpaceOnUse" y1="289.94" x2="-151.82" x1="-151.53">
   <stop id="stop2906" offset="0"/>
   <stop id="stop2908" stop-opacity="0" offset="1"/>
  </linearGradient>
  <radialGradient id="radialGradient4863" fx="-151.63" fy="290.39" gradientUnits="userSpaceOnUse" cy="289.98" cx="-151.73" r=".63281">
   <stop id="stop3926" stop-color="#fff" offset="0"/>
   <stop id="stop3935" stop-color="#b9abb9" offset=".35989"/>
   <stop id="stop3928" stop-color="#dfd9df" offset=".71978"/>
   <stop id="stop3930" stop-color="#3a3a3a" offset="1"/>
  </radialGradient>
  <linearGradient id="linearGradient4865" y2="182.06" gradientUnits="userSpaceOnUse" y1="182.07" gradientTransform="matrix(.57749 1.4482 -1.0452 .60348 204.3 164.98)" x2="-49.312" x1="-52.954">
   <stop id="stop2336" stop-color="#323232" offset="0"/>
   <stop id="stop2346" stop-color="#dfe1e1" offset=".076923"/>
   <stop id="stop2342" stop-color="#e2dcdc" offset=".5"/>
   <stop id="stop2348" stop-color="#fff" offset=".78202"/>
   <stop id="stop2344" stop-color="#dfd9df" offset=".90059"/>
   <stop id="stop2338" stop-color="#3a3a3a" offset="1"/>
  </linearGradient>
  <linearGradient id="linearGradient4867" y2="210.21" gradientUnits="userSpaceOnUse" y1="212.26" gradientTransform="matrix(.60348 1.0452 -1.0452 .60348 205.98 145.26)" x2="-52.219" x1="-52.533">
   <stop id="stop3796" offset="0"/>
   <stop id="stop3798" stop-opacity="0" offset="1"/>
  </linearGradient>
 </defs>
 <g id="layer1">
  <path id="path4759" d="m69.329 47.447c-3.497 0.008-7.38 0.284-11.648 0.826-4.813 0.612-10.161 1.547-16.044 2.805-5.259 1.19-10.251 2.499-14.975 3.927-4.635 1.393-9.047 2.957-13.237 4.691-8.3785 3.4-12.701 6.188-12.969 8.363-0.2672 2.244 1.7382 3.519 6.0167 3.825 2.2284 0.17 4.9023 0.068 8.0223-0.306 1.069-0.102 1.604-0.238 1.604-0.408 0-0.204-0.535-0.272-1.604-0.204-1.248 0.102-2.585 0.153-4.011 0.153-1.3371-0.034-2.6743-0.102-4.0113-0.204-2.3175-0.17-3.4763-0.714-3.4763-1.632 0-2.549 4.457-5.575 13.371-9.077 4.1-1.632 8.512-3.128 13.236-4.488 4.724-1.359 9.894-2.668 15.51-3.926 11.142-2.38 19.788-3.502 25.938-3.366 6.507 0.204 9.761 1.717 9.761 4.539 0 0.476-0.134 0.969-0.401 1.479-0.179 0.51-0.491 1.037-0.936 1.581-3.833 4.623-16.58 13.734-38.239 27.333-0.179 0.17-0.357 0.323-0.535 0.459-0.089 0.102-0.134 0.204-0.134 0.306 0 0.374 0.58 0.561 1.738 0.561 1.248 0 2.362-0.272 3.343-0.816 1.337-0.85 3.209-1.904 5.615-3.162 2.496-1.258 5.571-2.77 9.226-4.538 4.368-2.108 8.735-4.08 13.103-5.916 4.367-1.836 8.824-3.586 13.37-5.252 11.231-3.978 20.818-6.613 28.748-7.905 1.87-0.306 3.47-0.458 4.81-0.458 2.05 0 3.08 0.356 3.08 1.07 0 0.578-0.49 1.224-1.47 1.938l-19.39 14.993c-1.43 1.122-3.165 2.635-5.215 4.538-2.051 1.904-4.234 3.978-6.552 6.222-2.228 2.278-4.457 4.606-6.685 6.986-2.228 2.414-4.234 4.658-6.016 6.731-1.783 2.105-3.254 3.925-4.413 5.455-1.01 1.48-1.583 2.5-1.719 3.07-12.095 4.86-15.081 9.25-25.045 13.51 8.751-1 16.362-6.99 26.607-11.14 0.008 0.01 0.015 0.01 0.023 0.02 0.535 0.34 1.159 0.63 1.872 0.87 0.713 0.23 1.56 0.35 2.541 0.35 2.406 0 5.972-0.71 10.696-2.14 4.208-1.31 7.092-2.43 8.652-3.36 23.224-11.572 3.284-9.253-22.756 0.86 0.05-0.52 0.294-1.17 0.734-1.94 0.98-1.53 2.406-3.34 4.278-5.453 1.961-2.108 4.234-4.385 6.819-6.833 2.674-2.414 5.348-4.776 8.022-7.088s5.215-4.437 7.617-6.375c2.5-1.938 4.55-3.467 6.15-4.589 3.12-2.278 6.29-4.505 9.5-6.681 3.21-2.209 6.42-4.453 9.62-6.731 0.18-0.136 0.27-0.306 0.27-0.51 0.09-0.204 0.14-0.408 0.14-0.612 0-0.476-0.09-0.935-0.27-1.377-0.18-0.476-0.89-0.986-2.14-1.53-0.98-0.441-1.92-0.781-2.81-1.019-0.89-0.272-1.96-0.357-3.21-0.256-7.84 0.476-18.98 3.417-33.424 8.823-5.348 1.972-10.25 3.875-14.707 5.711-4.368 1.836-8.379 3.638-12.033 5.406-0.803 0.544-1.516 0.816-2.14 0.816-0.356 0-0.534-0.068-0.534-0.204 0-0.238 0.311-0.544 0.935-0.918 7.131-4.556 12.702-8.397 16.713-11.525 4.1-3.162 6.774-5.661 8.022-7.497 0.446-0.781 0.669-1.563 0.669-2.345 0-1.802-1.025-3.247-3.075-4.335-2.228-1.326-5.304-2.023-9.226-2.091-0.434-0.007-0.874-0.011-1.321-0.01zm35.641 51.575c2.06 0.023 0.03 1.878-8.168 6.078-0.069 0.03-0.14 0.06-0.213 0.08-9.271 3.51-15.777 5.26-19.521 5.26-1.153 0-1.839-0.34-2.06-1 14.555-6.38 26.862-10.454 29.962-10.418z" fill-rule="evenodd" fill="url(#linearGradient4792)"/>
  <path id="path2276" d="m50.893 3.2813v-2.7947 2.7947z" fill-opacity=".75688" fill="#fff"/>
  <path id="path1987" d="m-21.592-220.62v-2.8 2.8z" fill-opacity=".75688" fill="#fff"/>
  <path id="path1747" d="m26.205-335.95v-2.79 2.79z" fill-opacity=".75688" fill="#fff"/>
  <rect id="rect1327" opacity=".57787" height="0" width="1" y="-308.2" x="15.057" fill="#fff"/>
  <rect id="rect3812" rx="1.3524" ry="1.1572" transform="rotate(-20.959)" width="11.904" y="69.168" x="-4.7814" height="41.826" fill="url(#linearGradient4851)"/>
  <rect id="rect2810" rx="1.3524" ry="1.1572" transform="rotate(-20.959)" width="10.88" y="10.721" x="-4.1808" height="38.229" fill="url(#linearGradient4848)"/>
  <rect id="rect1709" rx="1.3524" ry="1.1572" transform="rotate(-20.959)" width="11.904" y="69.168" x="-4.7814" height="41.826" fill="url(#linearGradient4845)"/>
  <rect id="rect2803" transform="rotate(-20.959)" height="83.874" width="13.042" y="16.926" x="-5.2619" fill="url(#linearGradient4842)"/>
  <rect id="rect2814" transform="rotate(-20.959)" height="5.1493" width="10.49" y="11.779" x="-3.8902" fill="url(#linearGradient4839)"/>
  <rect id="rect2848" rx="1.3524" ry="1.1572" transform="rotate(-20.959)" width="10.88" y="10.721" x="-4.1808" height="2.0851" fill="url(#linearGradient4836)"/>
  <rect id="rect3733" opacity=".25820" transform="rotate(-20.959)" height="1.1588" width="13.042" y="16.926" x="-5.2619" fill="url(#linearGradient4833)"/>
  <rect id="rect3967" transform="rotate(-20.959)" height="68.296" width="12.631" y="32.502" x="-4.9268" fill="url(#linearGradient4830)"/>
  <rect id="rect2824" transform="matrix(-.88642 .46288 .37046 .92885 0 0)" height="41.352" width="3.5861" y="22.3" x="-8.1128" fill="url(#linearGradient4827)"/>
  <rect id="rect2892" opacity=".77869" transform="rotate(69.042)" height="1.2348" width="4.1241" y="-6.3652" x="22.194" fill="url(#linearGradient4824)"/>
  <g id="g3828" transform="matrix(-.53295 -.37361 -.47740 .51644 109.67 -73.127)">
   <path id="rect2826" d="m13.865 181.01l-59.383 34.28 0.018 0.04-0.228 0.13c-0.013 0-0.047 0.02-0.066 0.03-0.008 0.01-0.026 0.02-0.032 0.02-0.011 0.01-0.051 0.03-0.066 0.04-0.004 0-0.029 0.02-0.032 0.02-0.022 0.02-0.062 0.07-0.079 0.09-0.007 0.01-0.027 0.01-0.033 0.02-0.147 0.16-0.278 0.41-0.334 0.63-0.013 0.05-0.017 0.13-0.023 0.18 0.001 0.02 0.004 0.07 0.005 0.09 0.002 0.02 0.005 0.07 0.005 0.08 0.002 0.02 0.003 0.07 0.006 0.09 0 0.01 0.004 0.07 0.005 0.08 0.005 0.03 0.016 0.09 0.023 0.12 0.007 0.01 0.031 0.05 0.038 0.06l1.136 2.88c0.005 0.01 0.001 0.06 0.005 0.08 0.001 0.01 0.017 0.03 0.019 0.03 0.002 0.01 0.016 0.03 0.019 0.03 0.003 0.01 0.014 0.03 0.018 0.04 0.022 0.02 0.067 0.05 0.09 0.08 0.005 0 0.014 0.02 0.019 0.03 0.006 0.01 0.031 0.05 0.037 0.06 0.013 0.01 0.058 0.04 0.071 0.05 0.001 0 0.017 0.03 0.018 0.03 0.014 0.01 0.057 0.04 0.071 0.05 0.009 0 0.042 0.01 0.051 0.01 0.019 0.01 0.05 0.04 0.071 0.05 0.005 0 0.046 0.01 0.051 0.01 0.008 0.01 0.044 0.02 0.052 0.02s0.043 0.01 0.051 0.01 0.044 0.01 0.052 0.02c0.009 0 0.042 0.01 0.051 0.01 0.015 0 0.07 0 0.085-0.01h0.084c0.013 0 0.062 0 0.084-0.01 0.041-0.01 0.112-0.03 0.149-0.04 0.008 0 0.044 0.01 0.052 0.02l0.131-0.08c0.008 0 0.024-0.01 0.032-0.02l0.915-0.53 59.157-33.9-2.395-4.92zm-51.15 32.1c0.002 0-0.016 0.04-0.014 0.05 0.007 0.02 0.032 0.05 0.038 0.07 0.014 0.03 0.035 0.11 0.043 0.14 0.011 0.08 0.023 0.18 0.015 0.26-0.11 0.77-1.083 1.89-2.426 2.66-1.342 0.78-2.658 0.98-3.225 0.6-0.057-0.04-0.139-0.1-0.179-0.16-0.017-0.03-0.03-0.12-0.042-0.15-0.022-0.08-0.037-0.2-0.034-0.28 0.06-0.77 1.025-1.9 2.406-2.7 1.295-0.75 2.594-0.99 3.188-0.66 0.029 0.01 0.064 0.06 0.089 0.08 0.015 0.01 0.054 0.03 0.071 0.04 0.005 0.01 0.014 0.03 0.018 0.03 0.002 0.01 0.05 0.02 0.052 0.02z" fill="url(#linearGradient4865)"/>
   <path id="path3792" d="m-45.714 215.41l0.196-0.12 0.018 0.04-0.228 0.13c-0.013 0-0.047 0.02-0.066 0.03-0.008 0.01-0.026 0.02-0.032 0.02-0.011 0.01-0.051 0.03-0.066 0.04-0.004 0-0.029 0.02-0.032 0.02-0.022 0.02-0.062 0.07-0.079 0.09-0.007 0.01-0.027 0.01-0.033 0.02-0.147 0.16-0.278 0.41-0.334 0.63-0.013 0.05-0.017 0.13-0.023 0.18 0.001 0.02 0.004 0.07 0.005 0.09 0.002 0.02 0.005 0.07 0.005 0.08 0.002 0.02 0.003 0.07 0.006 0.09 0 0.01 0.004 0.07 0.005 0.08 0.005 0.03 0.016 0.09 0.023 0.12 0.007 0.01 0.031 0.05 0.038 0.06l1.136 2.88c0.005 0.01 0.001 0.06 0.005 0.08 0.001 0.01 0.017 0.03 0.019 0.03 0.002 0.01 0.016 0.03 0.019 0.03 0.003 0.01 0.014 0.03 0.018 0.04 0.022 0.02 0.067 0.05 0.09 0.08 0.005 0 0.014 0.02 0.019 0.03 0.006 0.01 0.031 0.05 0.037 0.06 0.013 0.01 0.058 0.04 0.071 0.05 0.001 0 0.017 0.03 0.018 0.03 0.014 0.01 0.057 0.04 0.071 0.05 0.009 0 0.042 0.01 0.051 0.01 0.019 0.01 0.05 0.04 0.071 0.05 0.005 0 0.046 0.01 0.051 0.01 0.008 0.01 0.044 0.02 0.052 0.02s0.043 0.01 0.051 0.01 0.044 0.01 0.052 0.02c0.009 0 0.042 0.01 0.051 0.01 0.015 0 0.07 0 0.085-0.01h0.084c0.013 0 0.062 0 0.084-0.01 0.041-0.01 0.112-0.03 0.149-0.04 0.008 0 0.044 0.01 0.052 0.02l0.131-0.08c0.008 0 0.024-0.01 0.032-0.02l0.915-0.53-0.849 0.49-1.968-4.91z" fill="url(#linearGradient4867)"/>
  </g>
  <path id="path3897" d="m-151.1 289.98a0.63281 0.63281 0 1 1 -1.27 0 0.63281 0.63281 0 1 1 1.27 0z" transform="matrix(.15772 -.68043 .75146 .070117 -146.11 -1.514)" fill="url(#radialGradient4863)"/>
  <path id="path2902" d="m-151.1 289.98a0.63281 0.63281 0 1 1 -1.27 0 0.63281 0.63281 0 1 1 1.27 0z" transform="matrix(.15772 -.68043 .75146 .070117 -146.11 -1.514)" fill="url(#linearGradient4861)"/>
  <g id="g3953" transform="matrix(.042754 -.18445 .20371 .019007 -4.1199 89.988)">
   <rect id="rect3945" rx="1.8575" ry="1.8575" transform="matrix(.5 .86602 -.86602 .5 0 0)" width="16.35" y="178.55" x="167.05" height="67.136" fill="url(#linearGradient4853)"/>
   <path id="path3947" d="m-145.78 283.42c7.18-6.73 16.93-15.78 17.85-16.65 0 0 8.05 14.15 8.04 14.15-1.2 0.35-13.85 4.05-23.36 6.82l-2.53-4.32z" fill="url(#linearGradient4855)"/>
   <path id="path3949" d="m-145.78 283.42c7.18-6.73 16.93-15.78 17.85-16.65l4.11 11.29c-1.21 0.36-9.92 6.91-19.43 9.68l-2.53-4.32z" fill="url(#linearGradient4857)"/>
   <path id="path3951" d="m-143.24 287.75c9.43-2.86 20.57-8 20.09-9.16l-4.95-11.96-17.68 16.8 2.54 4.32z" fill="url(#linearGradient4859)"/>
  </g>
  <path id="path3836" d="m43.952 116.89c-3.657-5-8.567-11.77-9.036-12.41 0.001 0 11.09-4.18 11.09-4.18 0.069 0.79 0.799 9.05 1.341 15.26l-3.395 1.33z" fill="url(#linearGradient4811)"/>
  <path id="path1701" opacity=".72541" d="m47.334 115.6l-1.391-15.22-11.131 4.11 9.11 12.39 3.412-1.28z" fill="url(#linearGradient4808)"/>
  <path id="path3875" d="m43.938 116.87c-3.657-5-8.567-11.77-9.035-12.41l11.089-4.18c0.069 0.79 0.8 9.06 1.342 15.26l-3.396 1.33z" fill="url(#linearGradient4805)"/>
  <path id="path1705" opacity=".72541" d="m47.472 115.56l-1.392-15.23-11.131 4.12 9.11 12.39 3.413-1.28z" fill="url(#linearGradient4802)"/>
  <path id="path3937" opacity=".72541" d="m47.483 115.38l-1.53-15.02-10.997 4.1 9.034 12.4 3.493-1.48z" fill="url(#linearGradient4799)"/>
  <path id="rect2592" opacity=".77869" d="m42.58 91.772l-8.483 5.93 0.754 6.698 10.956-4.2-3.227-8.428z" fill="url(#linearGradient4796)"/>
  <rect id="rect1851" opacity=".52459" transform="rotate(69.042)" height="13.072" width="19.431" y="-7.8426" x="75.132" fill="#e0e0e0"/>
 </g>
</svg>
