<?xml version="1.0" encoding="UTF-8" standalone="no"?>
<!-- Created with Inkscape (http://www.inkscape.org/) -->
<svg id="svg3186" xmlns:rdf="http://www.w3.org/1999/02/22-rdf-syntax-ns#" xmlns="http://www.w3.org/2000/svg" height="128" width="128" version="1.0" xmlns:xlink="http://www.w3.org/1999/xlink" xmlns:cc="http://web.resource.org/cc/" xmlns:dc="http://purl.org/dc/elements/1.1/">
 <metadata>
  <rdf:RDF xmlns:rdf="http://www.w3.org/1999/02/22-rdf-syntax-ns#" xmlns:cc="http://web.resource.org/cc/" xmlns:dc="http://purl.org/dc/elements/1.1/">
   <cc:Work rdf:about="">
    <dc:title/>
    <dc:description/>
    <dc:subject>
     <rdf:Bag>
      <rdf:li>unsorted</rdf:li>
     </rdf:Bag>
    </dc:subject>
    <dc:publisher>
     <cc:Agent rdf:about="http://www.openclipart.org/">
      <dc:title>Open Clip Art Library, Source: Oxygen Icons, Source: Oxygen Icons, Source: Oxygen Icons, Source: Oxygen Icons</dc:title>
     </cc:Agent>
    </dc:publisher>
    <dc:creator>
     <cc:Agent>
      <dc:title/>
     </cc:Agent>
    </dc:creator>
    <dc:rights>
     <cc:Agent>
      <dc:title/>
     </cc:Agent>
    </dc:rights>
    <dc:date/>
    <dc:format>image/svg+xml</dc:format>
    <dc:type rdf:resource="http://purl.org/dc/dcmitype/StillImage"/>
    <cc:license rdf:resource="http://creativecommons.org/licenses/by-sa/3.0/ or http://creativecommons.org/licenses/LGPL/2.1/"/>
    <dc:language>en</dc:language>
   </cc:Work>
  </rdf:RDF>
 </metadata>
 <defs id="defs3188">
  <filter id="AI_Sfocatura_4">
   <feGaussianBlur id="feGaussianBlur6" stdDeviation="4"/>
  </filter>
  <linearGradient id="linearGradient3242" y2="34" gradientUnits="userSpaceOnUse" y1="34" gradientTransform="translate(6 6)" x2="104.05" x1="11.949">
   <stop id="stop56" stop-color="#fff" offset="0"/>
   <stop id="stop58" stop-color="#fff" stop-opacity="0" offset="0.8"/>
  </linearGradient>
  <radialGradient id="radialGradient3246" gradientUnits="userSpaceOnUse" cy="58" cx="58" gradientTransform="matrix(1.0833 0 0 1.0833 1.1667 1.1667)" r="48">
   <stop id="stop26" stop-color="#fff" offset="0"/>
   <stop id="stop28" stop-color="#fff" offset=".574"/>
   <stop id="stop30" stop-color="#FBFBFB" offset=".6842"/>
   <stop id="stop32" stop-color="#eee" offset=".8001"/>
   <stop id="stop34" stop-color="#ddd" offset=".9"/>
   <stop id="stop36" stop-color="#bbb" offset="1"/>
  </radialGradient>
  <linearGradient id="linearGradient3251" y2=".00048828" gradientUnits="userSpaceOnUse" y1="116" x2="58" x1="58">
   <stop id="stop9" stop-color="#555" offset="0"/>
   <stop id="stop11" stop-color="#595959" offset=".2736"/>
   <stop id="stop13" stop-color="#666" offset=".562"/>
   <stop id="stop15" stop-color="#7B7B7B" offset=".8561"/>
   <stop id="stop17" stop-color="#888" offset="1"/>
  </linearGradient>
  <radialGradient id="radialGradient3253" gradientUnits="userSpaceOnUse" cy="59.187" cx="53.198" gradientTransform="matrix(.6667 0 0 .7574 20.721 14.064)" r="40.029">
   <stop id="stop3165" offset="0"/>
   <stop id="stop3175" stop-color="#666" offset="1"/>
  </radialGradient>
 </defs>
 <g id="layer1">
  <circle id="circle19" cy="58" transform="matrix(1.1034 0 0 1.1034 0 -.0000028)" cx="58" r="58" fill="url(#linearGradient3251)"/>
  <g id="g21" filter="url(#AI_Sfocatura_4)" opacity=".8" transform="matrix(1.0833 0 0 1.0833 1.1667 1.1667)">
   <path id="path23" d="m10 58c0 26.467 21.533 48 48 48s48-21.533 48-48-21.533-48-48-48-48 21.533-48 48z"/>
  </g>
  <path id="path38" fill="url(#radialGradient3246)" d="m12 64c0 28.673 23.327 52 52 52s52-23.327 52-52-23.327-52-52-52-52 23.327-52 52z"/>
  <polygon id="polygon53" transform="translate(6,6)" points="42 26 90 58 42 90" fill="url(#radialGradient3253)"/>
  <path id="path60" opacity=".5" fill="url(#linearGradient3242)" d="m64 64c17.789 0 33.967-5.13 46.05-13.509-5.85-19.909-24.274-34.491-46.05-34.491-21.777 0-40.201 14.583-46.051 34.491 12.083 8.379 28.261 13.509 46.051 13.509z"/>
 </g>
</svg>
