<?xml version="1.0" encoding="UTF-8" standalone="no"?>
<!-- Created with Inkscape (http://www.inkscape.org/) -->
<svg id="svg7206" xmlns:rdf="http://www.w3.org/1999/02/22-rdf-syntax-ns#" xmlns="http://www.w3.org/2000/svg" height="48px" width="48px" xmlns:xlink="http://www.w3.org/1999/xlink" xmlns:cc="http://creativecommons.org/ns#" xmlns:dc="http://purl.org/dc/elements/1.1/">
 <metadata>
  <rdf:RDF xmlns:rdf="http://www.w3.org/1999/02/22-rdf-syntax-ns#" xmlns:cc="http://web.resource.org/cc/" xmlns:dc="http://purl.org/dc/elements/1.1/">
   <cc:Work rdf:about="">
    <dc:title/>
    <dc:description/>
    <dc:subject>
     <rdf:Bag>
      <rdf:li>unsorted</rdf:li>
     </rdf:Bag>
    </dc:subject>
    <dc:publisher>
     <cc:Agent rdf:about="http://www.openclipart.org/">
      <dc:title>Open Clip Art Library, Source: GNOME-Colors, Source: GNOME-Colors, Source: GNOME-Colors, Source: GNOME-Colors, Source: GNOME-Colors, Source: GNOME-Colors, Source: GNOME-Colors, Source: GNOME-Colors</dc:title>
     </cc:Agent>
    </dc:publisher>
    <dc:creator>
     <cc:Agent>
      <dc:title/>
     </cc:Agent>
    </dc:creator>
    <dc:rights>
     <cc:Agent>
      <dc:title/>
     </cc:Agent>
    </dc:rights>
    <dc:date/>
    <dc:format>image/svg+xml</dc:format>
    <dc:type rdf:resource="http://purl.org/dc/dcmitype/StillImage"/>
    <cc:license rdf:resource="http://creativecommons.org/licenses/GPL/2.0/"/>
    <dc:language>en</dc:language>
   </cc:Work>
  </rdf:RDF>
 </metadata>
 <defs id="defs7208">
  <linearGradient id="linearGradient2785" y2="42.306" gradientUnits="userSpaceOnUse" y1=".90034" gradientTransform="matrix(1.0725 0 0 1.0725 -1.2645 -1.3295)" x2="38.4" x1="15.26">
   <stop id="stop4224" stop-color="#fff" offset="0"/>
   <stop id="stop4226" stop-color="#fff" stop-opacity="0" offset="1"/>
  </linearGradient>
  <linearGradient id="linearGradient8008" y2="42.571" gradientUnits="userSpaceOnUse" y1="5" x2="22" x1="22.143">
   <stop id="stop8004" stop-color="#789e2d" offset="0"/>
   <stop id="stop8006" stop-color="#42770c" offset="1"/>
  </linearGradient>
  <radialGradient id="radialGradient7996" gradientUnits="userSpaceOnUse" cy="5" cx="24" gradientTransform="matrix(-1.3101e-8 2.2594 -4.0027 0 44.013 -49.226)" r="19">
   <stop id="stop2266" stop-color="#b8d67a" offset="0"/>
   <stop id="stop7998" stop-color="#a7cc5c" offset=".25"/>
   <stop id="stop8000" stop-color="#789e2d" offset="0.68"/>
   <stop id="stop2268" stop-color="#42770c" offset="1"/>
  </radialGradient>
  <linearGradient id="linearGradient7386" y2="36.893" gradientUnits="userSpaceOnUse" y1="31.488" gradientTransform="matrix(1.145 0 0 1.8605 -2.9789 -40.5)" x2="23.563" x1="23.563">
   <stop id="stop7579" stop-opacity=".31373" offset="0"/>
   <stop id="stop7581" stop-opacity=".31" offset="1"/>
  </linearGradient>
 </defs>
 <g id="layer1">
  <path id="path7342" opacity=".3" d="m6 17c-1.9794 0.022-1.9779 0-2 2v10c0.0663 1.935 0.0648 1.978 2 2h11v11c-0.04 1.948 0.052 2 2 2h10c2.037 0 2.04 0 2-2v-11h11c2 0 2 0.045 2-2v-10c0.044-1.957 0.046-1.978-2-2h-11v-11c0-1.8542 0-2-2-2h-10c-1.854 0-1.958 0-2 2v11h-11z" display="block" fill="url(#linearGradient7386)"/>
  <path id="path2262" stroke-linejoin="round" d="m18.5 18.5v-13h11v13h13v11h-13v13h-11v-13h-13v-11h13z" fill-rule="evenodd" stroke="url(#linearGradient8008)" fill="url(#radialGradient7996)"/>
  <path id="path2272" opacity=".5" stroke-linejoin="round" d="m19.5 19.5v-13h9v13h13v9h-13v13h-9v-13h-13v-9h13z" stroke="url(#linearGradient2785)" fill="none"/>
 </g>
</svg>
